<?xml version="1.0" encoding="utf-8"?>
<!-- Generator: Adobe Illustrator 27.2.0, SVG Export Plug-In . SVG Version: 6.00 Build 0)  -->
<svg version="1.1" id="Layer_1" xmlns="http://www.w3.org/2000/svg" xmlns:xlink="http://www.w3.org/1999/xlink" x="0px" y="0px"
	 viewBox="0 0 102.55 113.19" style="enable-background:new 0 0 102.55 113.19;" xml:space="preserve">
<style type="text/css">
	.st0{fill:#FFFFFF;}
	.st1{fill:#22B573;}
	.st2{fill:#0053BC;}
</style>
<g>
	<path class="st0" d="M95.07,112.1H7.49c-3.43,0-6.21-2.78-6.21-6.21V7.31c0-3.43,2.78-6.21,6.21-6.21h87.58
		c3.43,0,6.21,2.78,6.21,6.21v98.58C101.28,109.32,98.5,112.1,95.07,112.1z"/>
	<g>
		<g>
			<g>
				<path class="st1" d="M7.97,107.53h43.66c0.33,0,0.6,0.27,0.6,0.6v1.64c0,0.33-0.27,0.6-0.6,0.6H7.97c-0.33,0-0.6-0.27-0.6-0.6
					v-1.64C7.37,107.8,7.64,107.53,7.97,107.53z"/>
				<path class="st1" d="M7.97,94.32h1.77v8.33c0,2.28,1.89,3.87,4.59,3.87c0.57,0,1.15-0.06,1.6-0.17
					c0.16-0.04,0.29-0.13,0.37-0.27s0.11-0.3,0.06-0.46l-0.37-1.4c-0.08-0.29-0.36-0.48-0.66-0.44c-0.28,0.04-0.52,0.06-0.78,0.06
					c-1.3,0-1.8-0.5-1.8-1.77v-7.75h2.78c0.33,0,0.6-0.27,0.6-0.6v-1.24c0-0.33-0.27-0.6-0.6-0.6h-2.78v-2.7
					c0-0.33-0.27-0.6-0.6-0.6h-1.82c-0.33,0-0.6,0.27-0.6,0.6v2.7H7.96c-0.33,0-0.6,0.27-0.6,0.6v1.24c0,0.33,0.27,0.6,0.6,0.6
					L7.97,94.32z"/>
				<path class="st1" d="M19.25,90.2c1.12,0,2.03-0.78,2.03-1.75s-0.91-1.75-2.03-1.75s-2.03,0.78-2.03,1.75S18.13,90.2,19.25,90.2z
					"/>
				<path class="st1" d="M18.33,91.88h1.81c0.33,0,0.6,0.27,0.6,0.6v13.27c0,0.33-0.27,0.6-0.6,0.6h-1.81c-0.33,0-0.6-0.27-0.6-0.6
					V92.48C17.73,92.15,18,91.88,18.33,91.88z"/>
				<path class="st1" d="M25.11,105.68c1.1,0.64,2.43,0.97,3.94,0.97c2.3,0,4.23-0.8,5.43-2.25c0.49-0.59,0.82-1.25,0.99-1.97
					c0.04-0.18,0-0.36-0.11-0.51c-0.11-0.14-0.29-0.23-0.47-0.23h-1.86c-0.26,0-0.48,0.16-0.57,0.39c-0.46,1.28-1.73,2.04-3.42,2.04
					s-3.11-0.83-3.84-2.34c-0.36-0.77-0.55-1.66-0.55-2.65c0-1.95,0.74-3.47,2.09-4.3c0.65-0.4,1.4-0.6,2.3-0.6
					c1.22,0,2.24,0.4,2.87,1.13c0.25,0.29,0.42,0.59,0.55,0.92c0.08,0.23,0.31,0.39,0.56,0.39h1.86c0.18,0,0.35-0.08,0.47-0.23
					c0.11-0.14,0.16-0.33,0.11-0.51c-0.38-1.64-1.57-2.95-3.34-3.66c-0.93-0.37-1.98-0.56-3.11-0.56c-2.86,0-5.22,1.32-6.48,3.61
					c-0.61,1.12-0.92,2.43-0.92,3.88c0,2.89,1.24,5.19,3.49,6.48L25.11,105.68z"/>
				<path class="st1" d="M36.93,106.36h1.82c0.33,0,0.6-0.27,0.6-0.6v-4.72l1.35-1.12l5.6,6.24c0.11,0.13,0.28,0.2,0.45,0.2h2.32
					c0.24,0,0.45-0.14,0.55-0.36s0.06-0.47-0.1-0.64l-6.51-7.2l5.85-5.23c0.19-0.17,0.25-0.43,0.16-0.66s-0.31-0.38-0.56-0.38h-2.12
					c-0.15,0-0.29,0.05-0.4,0.15l-6.58,5.9V87.88c0-0.33-0.27-0.6-0.6-0.6h-1.82c-0.33,0-0.6,0.27-0.6,0.6v17.88
					C36.34,106.09,36.61,106.36,36.93,106.36L36.93,106.36z"/>
			</g>
			<path class="st2" d="M94.44,91.74H65.18c-0.03-0.15-0.04-0.29-0.04-0.42c0-0.17,0.03-0.32,0.07-0.43
				c0.17-0.36,0.45-0.65,0.84-0.89c0.43-0.26,0.86-0.45,1.28-0.56c0.28-0.07,0.5-0.12,0.66-0.15c0.34-0.06,0.59-0.33,0.63-0.66
				c0.27,0.12,0.55,0.24,0.84,0.37c0.38,0.17,0.83,0,1-0.38l0.71-1.57c0.17-0.38,0-0.83-0.38-1c-4.2-1.91-7.74-2.87-10.5-2.87
				c-1.79,0-3.29,0.4-4.48,1.2c-0.78,0.55-1.37,1.18-1.75,1.85c-0.38,0.66-0.62,1.3-0.73,1.9c-0.1,0.57-0.15,0.99-0.15,1.27v2.46
				c-0.21-0.08-0.43-0.12-0.68-0.12h-0.29c-0.42,0-0.75,0.34-0.75,0.75v1.72c0,0.42,0.34,0.75,0.75,0.75h0.29
				c0.27,0,0.34,0.1,0.39,0.19c0.12,0.24,0.2,0.53,0.24,0.85c0.04,0.37,0.05,0.65,0.05,0.84v12.92c0,0.42,0.34,0.75,0.75,0.75h1.72
				c0.42,0,0.75-0.34,0.75-0.75V94.95h6.36c0.2,0.85,0.3,1.64,0.3,2.34c0,1.7-0.52,2.84-1.59,3.5c-0.55,0.34-1.12,0.56-1.69,0.65
				c-0.14,0.01-0.48,0.03-1.3,0.05c-0.22,0-0.42,0.1-0.56,0.27s-0.2,0.38-0.17,0.6l0.44,2.87c0.29,1.55,1.31,2.81,3.02,3.73
				c1.64,0.89,3.29,1.38,4.92,1.46h0.4c2.05,0,3.6-0.51,4.6-1.51c0.93-0.93,1.4-2.11,1.4-3.51c0-1.13-0.26-2.32-0.78-3.55
				c-0.51-1.2-1.16-2.39-1.95-3.53c-0.78-1.14-1.62-2.2-2.48-3.13l-0.2-0.23h18.46v0.69c-4.64,0.26-8.06,1.68-10.16,4.22
				c-1.47,1.85-2.22,3.98-2.22,6.34c0,1.01,0.06,1.35,0.14,1.53l0.14,0.73c0.07,0.38,0.43,0.65,0.82,0.61l0.8-0.09
				c1.12-0.13,2.22-0.2,3.27-0.2c1.56,0,2.97,0.1,4.21,0.29c1.25,0.2,2.24,0.39,2.96,0.58c0.82,0.21,1.04,0.28,1.1,0.29l1.18,0.38
				c0.23,0.07,0.48,0.03,0.67-0.11s0.31-0.37,0.31-0.61V99.05c0.72,0.17,1.3,0.49,1.72,0.93c0.24,0.26,0.36,0.6,0.36,1.05v0.18
				c-0.27,0.1-0.46,0.35-0.46,0.65v2.99c0,0.42,0.34,0.75,0.75,0.75h2.18c0.42,0,0.75-0.34,0.75-0.75v-3.81
				c0-2.16-1.07-3.72-3.18-4.64c-0.72-0.3-1.43-0.51-2.12-0.63v-0.82h5.64c0.42,0,0.75-0.34,0.75-0.75v-1.72
				C95.19,92.06,94.85,91.73,94.44,91.74L94.44,91.74z M85.58,98.89v7.45c-2.19-0.51-4.61-0.76-7.21-0.76
				c-0.61,0-1.25,0.02-1.9,0.06c0.07-1.35,0.56-2.6,1.46-3.7C79.43,100.15,82.01,99.12,85.58,98.89L85.58,98.89z M66.16,98.83
				c0.89,1.11,1.61,2.21,2.15,3.26c0.66,1.29,0.99,2.39,0.99,3.27c0,0.92-0.35,1.43-1.14,1.64c-0.57,0.14-1.15,0.22-1.71,0.22
				c-1.22-0.02-2.4-0.35-3.53-0.97c-1.21-0.67-1.49-1.15-1.54-1.39l-0.06-0.43c1.45-0.4,2.66-1.24,3.61-2.52
				C65.57,101.02,65.99,99.99,66.16,98.83L66.16,98.83z M61.92,91.74H56.4v-2.37c0-0.1,0.03-0.38,0.23-1.06
				c0.13-0.46,0.47-0.89,1.01-1.28c0.23-0.16,0.55-0.31,0.97-0.43c0.42-0.13,0.99-0.19,1.68-0.19c0.95,0,2.21,0.2,3.74,0.59
				c0.18,0.05,0.37,0.1,0.57,0.15c-0.15,0.08-0.29,0.17-0.43,0.26c-0.82,0.52-1.45,1.26-1.89,2.2v0.02
				c-0.24,0.57-0.36,1.17-0.36,1.78C61.92,91.52,61.92,91.63,61.92,91.74L61.92,91.74z"/>
		</g>
		<g>
			<g>
				<path d="M80.1,63.42c0-2.33,0-4.65,0-6.98v-7.19c0-9.77,0-19.55,0-29.32c0-0.75-0.24-1.36-0.78-1.9
					c-4.85-4.83-9.7-9.68-14.53-14.53c-0.56-0.56-1.18-0.81-1.96-0.81c-10.47,0-20.93,0-31.4,0.02c-1.3,0-2.61-0.11-3.92,0.12
					C26.98,2.92,26.48,3.06,26,3.25c-1.34,0.54-2.45,1.41-3.24,2.63C22.48,6.31,22.19,6.74,22,7.25c-0.43,1.14-0.57,2.31-0.58,3.5
					c-0.04,4.94-0.02,9.88-0.02,14.82v8.73c0.64-0.13,1.31-0.2,1.98-0.2h0.6c0.74,0,1.46,0.08,2.15,0.24c0-7.84,0-16.91,0-24.64
					c0-0.63,0.25-1.14,0.63-1.57c0.53-0.58,1.23-0.84,2.02-0.84H58.2c0,0.1,0.03,0.17,0.03,0.24c0,1.71-0.03,3.41,0,5.12
					c0.03,1.68-0.1,3.37,0.12,5.06c0.09,0.68,0.19,1.33,0.41,1.98c0.21,0.61,0.43,1.23,0.84,1.7c0.41,0.47,0.67,1.11,1.32,1.36
					c0.44,0.59,1.12,0.83,1.75,1.12c0.51,0.23,1.07,0.49,1.61,0.51c1.05,0.05,2.08,0.22,3.14,0.19c1.91-0.05,3.82-0.02,5.73-0.02
					h2.33V73.6c0,0.23,0.06,0.48,0,0.68c-0.35,1.11-1.38,2.08-2.61,2.08c-10.57-0.02-21.14,0-31.7,0h-2c-1,2.67-3.58,4.58-6.6,4.58
					h41.09c0.03-0.25,0.23-0.14,0.35-0.15c0.3-0.02,1.65-0.35,1.92-0.53c0.55-0.36,1.18-0.59,1.6-1.13
					c0.66-0.23,0.81-0.96,1.33-1.35c0.22-0.65,0.77-1.14,0.84-1.87c0.03-0.35,0.25-0.66,0.25-1.04c0-0.36,0.15-0.71,0.15-1.08
					C80.1,70.33,80.1,66.88,80.1,63.42L80.1,63.42z M73.92,19.81c-2.85,0-5.7-0.01-8.55,0c-0.66,0-1.16-0.26-1.63-0.68
					c-0.36-0.32-0.53-0.75-0.75-1.12V8.17c3.89,3.89,7.73,7.73,11.63,11.63L73.92,19.81L73.92,19.81z"/>
				<g>
					<path d="M53.27,32.19c-4.05,0-8.1,0-12.15,0c-1.24,0-1.7,0.41-2.22,1.23c-0.39,0.61-0.28,1.76,0.2,2.33
						c0.57,0.67,1.25,1.04,2.17,1.04c8.05-0.02,16.09-0.01,24.14,0c0.98,0,1.66-0.46,2.15-1.28c0.19-0.32,0.26-0.68,0.28-1.02
						c0.02-0.31-0.14-0.64-0.26-0.95c-0.13-0.32-0.36-0.56-0.62-0.81c-0.43-0.41-0.91-0.53-1.47-0.53c-4.07,0-8.15,0-12.22,0
						L53.27,32.19z"/>
					<path d="M40.58,46.55c5.04,0,10.16,0,15.27,0c0.55,0,1-0.19,1.38-0.54c0.37-0.35,0.82-0.67,0.77-1.28
						c0.37-0.48,0.03-0.93-0.08-1.37c-0.12-0.48-0.54-0.8-0.92-1.05c-0.34-0.22-0.77-0.35-1.23-0.35c-4.89,0.01-9.77,0-14.66,0
						c-1.34,0-2.48,1.24-2.36,2.45c0.08,0.78,0.48,1.42,1.18,1.83C40.11,46.35,40.31,46.43,40.58,46.55L40.58,46.55z"/>
					<path d="M57.99,54.82c-0.14,0.37-0.36,0.77-0.66,1.01c-0.42,0.35-0.95,0.52-1.54,0.51c-5.14-0.02-10.29-0.01-15.43-0.01
						c-0.06-0.05-0.1-0.12-0.17-0.15c-0.21-0.08-0.4-0.19-0.57-0.31c-0.03-0.97-0.26-1.89-0.65-2.72c0.62-0.99,1.17-1.39,2.3-1.39
						c4.79-0.02,9.58-0.01,14.36,0c0.42,0,1.13,0.23,1.49,0.45c0.41,0.26,0.68,0.66,0.86,1.07c0.24,0.54,0.22,0.95,0,1.54H57.99z"/>
				</g>
			</g>
			<path class="st1" d="M71.7,70.66c-0.71,0-1.64-0.56-2.76-1.66l-0.59-0.58c-1.99-1.96-4.04-3.98-5.99-6.01
				c-1.05-1.09-1.78-2.85-0.41-4.22c0.56-0.56,1.16-0.84,1.79-0.84c0.77,0,1.62,0.41,2.44,1.19c0.69,0.66,1.38,1.39,2.17,2.24
				c0.42,0.45,0.87,0.94,1.38,1.46l2.01,2.1l2.02-2.09c0.97-1,1.92-1.99,2.84-2.95c2.07-2.15,4.03-4.19,6.03-6.19
				c1.02-1.02,8.02-8.33,9.73-8.33c0.59,0,1.12,0.24,1.64,0.73c0.54,0.52,0.81,1.06,0.81,1.67c0.01,0.93-0.56,2.02-1.6,3.08
				c-4.23,4.28-14.88,14.93-18.66,18.66c-0.79,0.79-1.93,1.72-2.85,1.72L71.7,70.66z"/>
			<g>
				<path class="st2" d="M39.62,55.87c-0.03-0.97-0.26-1.89-0.65-2.72c-0.94-2.03-2.83-3.54-5.09-3.96v-5.22
					c0-4.71-3.31-8.66-7.73-9.64c-0.69-0.16-1.41-0.24-2.15-0.24h-0.6c-0.68,0-1.34,0.07-1.98,0.2c-4.5,0.92-7.9,4.91-7.9,9.68v5.22
					c-3.27,0.61-5.75,3.48-5.75,6.92v17.78c0,3.88,3.16,7.04,7.04,7.04h17.78c3.02,0,5.6-1.91,6.6-4.58
					c0.29-0.77,0.44-1.6,0.44-2.46V56.11c0-0.08,0-0.16,0-0.25L39.62,55.87z M18.41,43.97c0-2.75,2.23-4.98,4.98-4.98h0.6
					c2.75,0,4.98,2.23,4.98,4.98v5.1H18.41L18.41,43.97L18.41,43.97z M34.72,73.89c0,1.18-0.96,2.14-2.14,2.14H14.8
					c-1.18,0-2.15-0.96-2.15-2.14V56.11c0-1.18,0.96-2.14,2.15-2.14h17.78c1.18,0,2.14,0.96,2.14,2.14V73.89z"/>
				<path class="st2" d="M23.7,57.94c-1.35,0-2.45,1.1-2.45,2.45v7.7c0,1.35,1.1,2.45,2.45,2.45s2.45-1.1,2.45-2.45v-7.7
					C26.15,59.04,25.05,57.94,23.7,57.94z"/>
			</g>
		</g>
	</g>
</g>
</svg>
