<?xml version="1.0" encoding="utf-8"?>
<!-- Generator: Adobe Illustrator 27.2.0, SVG Export Plug-In . SVG Version: 6.00 Build 0)  -->
<svg version="1.1" id="OBJECTS" xmlns="http://www.w3.org/2000/svg" xmlns:xlink="http://www.w3.org/1999/xlink" x="0px" y="0px"
	 viewBox="0 0 1241.25 528.89" style="enable-background:new 0 0 1241.25 528.89;" xml:space="preserve">
<style type="text/css">
	.st0{fill:#BCBEC0;}
	.st1{fill:url(#SVGID_1_);}
	.st2{fill:url(#SVGID_00000114075765761051107930000000475525867844895920_);}
	.st3{fill:url(#SVGID_00000096041056092095553880000013663607036184189602_);}
	.st4{fill:url(#SVGID_00000016045417980495924370000009903013790144978577_);}
	.st5{fill:url(#SVGID_00000167386187084841717770000006776096983188190339_);}
	.st6{fill:#FFFFFF;}
	.st7{font-family:'Inter-Medium';}
	.st8{font-size:23.014px;}
	.st9{font-family:'Inter-Black';}
	.st10{font-size:48.1087px;}
	.st11{font-family:'Inter-SemiBold';}
	.st12{font-size:29.8347px;}
	.st13{fill:url(#SVGID_00000070808940280717153040000017493099814970476462_);}
	.st14{fill:url(#SVGID_00000100384777971600060350000009895154790469828000_);}
	.st15{fill:url(#SVGID_00000089557584903078090110000018251198817221480367_);}
	.st16{fill:url(#SVGID_00000134252271615915423840000006975718618122399932_);}
	.st17{fill:url(#SVGID_00000134939927329696221470000004404198746381950596_);}
	.st18{fill:url(#SVGID_00000064324348346440856090000013446124340410859709_);}
	.st19{fill:url(#SVGID_00000092446079454570632370000004254390114278132120_);}
	.st20{fill:url(#SVGID_00000140004333407607026500000012163597507373659008_);}
	.st21{fill:url(#SVGID_00000102525947248767468900000006177361418219178903_);}
	.st22{fill:url(#SVGID_00000138564448806271767720000007727833482883616403_);}
	.st23{fill:url(#SVGID_00000154414773805417727940000015009581305913791125_);}
	.st24{fill:url(#SVGID_00000092438579316142324070000017824340968537478042_);}
	.st25{fill:url(#SVGID_00000071558114124724509280000008081851574983676823_);}
	.st26{fill:url(#SVGID_00000173840375457921643690000005184745881374444701_);}
	.st27{fill:url(#SVGID_00000052092073080923873430000002117548232023977607_);}
	.st28{fill:url(#SVGID_00000025406931493899621070000017955140999963413904_);}
	.st29{fill:url(#SVGID_00000079448548772656115350000014837904484589980576_);}
	.st30{fill:url(#SVGID_00000155147525857818857590000015522311444413932437_);}
	.st31{fill:url(#SVGID_00000107556757815230733110000004251525425758409380_);}
	.st32{fill:#294F9E;}
	.st33{fill:#F77E00;}
	.st34{fill:none;}
	.st35{font-size:29px;}
	.st36{fill:#4B8500;}
	.st37{fill:#DE1D2B;}
</style>
<path class="st0" d="M1172.9,497.8h-70.19V445.2h-5.31v52.59H787.72V445.2h-5.31v52.59H460.96V445.2h-5.31v52.59H146.27V445.2h-5.31
	v52.59H68.35c-1.47,0-2.65,1.19-2.65,2.65s1.19,2.65,2.65,2.65H1172.9c1.47,0,2.65-1.19,2.65-2.65S1174.36,497.8,1172.9,497.8z"/>
<linearGradient id="SVGID_1_" gradientUnits="userSpaceOnUse" x1="142.7184" y1="15.8302" x2="144.488" y2="452.858">
	<stop  offset="0" style="stop-color:#D0E9F4"/>
	<stop  offset="1" style="stop-color:#9DD2E8"/>
</linearGradient>
<path class="st1" d="M250.07,445.2H37.16c-3.1,0-5.6-2.51-5.6-5.6V35.39c0-3.1,2.51-5.6,5.6-5.6h212.92c3.1,0,5.6,2.51,5.6,5.6
	V439.6C255.68,442.69,253.17,445.2,250.07,445.2z"/>
<linearGradient id="SVGID_00000145047816268413984900000015692551034940269229_" gradientUnits="userSpaceOnUse" x1="49.3164" y1="23.2544" x2="68.8083" y2="23.2544">
	<stop  offset="0.3394" style="stop-color:#375A99"/>
	<stop  offset="1" style="stop-color:#23458C"/>
</linearGradient>
<path style="fill:url(#SVGID_00000145047816268413984900000015692551034940269229_);" d="M63.61,16.73h-9.1
	c-2.87,0-5.19,2.33-5.19,5.19v7.86h19.49v-7.86C68.81,19.05,66.48,16.73,63.61,16.73z"/>
<linearGradient id="SVGID_00000120525339235811051000000010905122401498266002_" gradientUnits="userSpaceOnUse" x1="255.6785" y1="285.3946" x2="268.7325" y2="285.3946">
	<stop  offset="0.3394" style="stop-color:#375A99"/>
	<stop  offset="1" style="stop-color:#23458C"/>
</linearGradient>
<path style="fill:url(#SVGID_00000120525339235811051000000010905122401498266002_);" d="M268.73,289.95v-9.1
	c0-2.87-2.33-5.19-5.19-5.19h-7.86v19.49h7.86C266.41,295.14,268.73,292.81,268.73,289.95z"/>
<linearGradient id="SVGID_00000034786757913187145220000013459576294350465200_" gradientUnits="userSpaceOnUse" x1="59.0625" y1="70.9407" x2="142.3045" y2="70.9407">
	<stop  offset="0" style="stop-color:#89A6D0"/>
	<stop  offset="1" style="stop-color:#4C6DB1"/>
</linearGradient>
<path style="fill:url(#SVGID_00000034786757913187145220000013459576294350465200_);" d="M132.56,16.73H80.43H59.06
	c5.38,0,9.75,4.36,9.75,9.75v3.31v71.29l36.75,24.08l36.75-24.08V29.78v-3.31C142.3,21.09,137.94,16.73,132.56,16.73z"/>
<linearGradient id="SVGID_00000136381477764166595220000003987351009662699423_" gradientUnits="userSpaceOnUse" x1="16.8899" y1="353.9137" x2="268.7325" y2="353.9137">
	<stop  offset="0" style="stop-color:#89A6D0"/>
	<stop  offset="1" style="stop-color:#4C6DB1"/>
</linearGradient>
<path style="fill:url(#SVGID_00000136381477764166595220000003987351009662699423_);" d="M258.99,295.14h-3.31H28.69
	c-6.52,0-11.8,5.28-11.8,11.8v103.69c0,6.52,5.28,11.8,11.8,11.8h226.99h3.31c5.38,0,9.75-4.36,9.75-9.75V295.14v-9.75
	C268.73,290.78,264.37,295.14,258.99,295.14z"/>
<text transform="matrix(1 0 0 1 74.4378 52.0851)" class="st6 st7 st8">STEP</text>
<text transform="matrix(1 0 0 1 74.159 94.8166)" class="st6 st9 st10">01</text>
<g>
	<text transform="matrix(1 0 0 1 34.4883 350.4375)"><tspan x="0" y="0" class="st6 st11 st12">SCAN/UPLOAD</tspan><tspan x="38.04" y="35.8" class="st6 st11 st12">YOUR NID</tspan></text>
</g>
<linearGradient id="SVGID_00000114762920546134002760000005957840346066835893_" gradientUnits="userSpaceOnUse" x1="462.1597" y1="29.253" x2="462.1597" y2="452.6833">
	<stop  offset="7.011220e-03" style="stop-color:#FFE39A"/>
	<stop  offset="1" style="stop-color:#FFB900"/>
</linearGradient>
<path style="fill:url(#SVGID_00000114762920546134002760000005957840346066835893_);" d="M568.62,445.2H355.7
	c-3.1,0-5.6-2.51-5.6-5.6V35.39c0-3.1,2.51-5.6,5.6-5.6h212.92c3.1,0,5.6,2.51,5.6,5.6V439.6
	C574.22,442.69,571.71,445.2,568.62,445.2z"/>
<linearGradient id="SVGID_00000104669692591537698200000013691086469376625033_" gradientUnits="userSpaceOnUse" x1="367.8602" y1="23.2544" x2="387.3519" y2="23.2544">
	<stop  offset="0" style="stop-color:#CC6B06"/>
	<stop  offset="1" style="stop-color:#B25B00"/>
</linearGradient>
<path style="fill:url(#SVGID_00000104669692591537698200000013691086469376625033_);" d="M377.61,16.73L377.61,16.73
	c-5.38,0-9.75,4.36-9.75,9.75v3.31h19.49v-3.31C387.35,21.09,382.99,16.73,377.61,16.73z"/>
<linearGradient id="SVGID_00000163759968205385195290000013458160414396741512_" gradientUnits="userSpaceOnUse" x1="574.2222" y1="285.3946" x2="587.2762" y2="285.3946">
	<stop  offset="0" style="stop-color:#CC6B06"/>
	<stop  offset="1" style="stop-color:#B25B00"/>
</linearGradient>
<path style="fill:url(#SVGID_00000163759968205385195290000013458160414396741512_);" d="M587.28,289.95v-9.1
	c0-2.87-2.33-5.19-5.19-5.19h-7.86v19.49h7.86C584.95,295.14,587.28,292.81,587.28,289.95z"/>
<linearGradient id="SVGID_00000102524362585237540360000011325594457684179610_" gradientUnits="userSpaceOnUse" x1="377.606" y1="70.9407" x2="460.8483" y2="70.9407">
	<stop  offset="0" style="stop-color:#F8A34A"/>
	<stop  offset="1" style="stop-color:#DE7200"/>
</linearGradient>
<path style="fill:url(#SVGID_00000102524362585237540360000011325594457684179610_);" d="M451.1,16.73h-52.13h-21.37
	c5.38,0,9.75,4.36,9.75,9.75v3.31v71.29l36.75,24.08l36.75-24.08V29.78v-3.31C460.85,21.09,456.48,16.73,451.1,16.73z"/>
<linearGradient id="SVGID_00000134220178764051745840000005844169209655027088_" gradientUnits="userSpaceOnUse" x1="335.4336" y1="353.9137" x2="587.2762" y2="353.9137">
	<stop  offset="0" style="stop-color:#F8A34A"/>
	<stop  offset="1" style="stop-color:#DE7200"/>
</linearGradient>
<path style="fill:url(#SVGID_00000134220178764051745840000005844169209655027088_);" d="M577.53,295.14h-3.31H347.23
	c-6.52,0-11.8,5.28-11.8,11.8v103.69c0,6.52,5.28,11.8,11.8,11.8h226.99h3.31c5.38,0,9.75-4.36,9.75-9.75V295.14v-9.75
	C587.28,290.78,582.91,295.14,577.53,295.14z"/>
<text transform="matrix(1 0 0 1 392.9828 52.0851)" class="st6 st7 st8">STEP</text>
<text transform="matrix(1 0 0 1 385.9344 94.8166)" class="st6 st9 st10">02</text>
<linearGradient id="SVGID_00000039133834264588366880000000934762746188686246_" gradientUnits="userSpaceOnUse" x1="780.7033" y1="26.304" x2="780.7033" y2="452.6796">
	<stop  offset="0" style="stop-color:#E6F0AC"/>
	<stop  offset="1" style="stop-color:#B7D515"/>
</linearGradient>
<path style="fill:url(#SVGID_00000039133834264588366880000000934762746188686246_);" d="M887.16,445.2H674.25
	c-3.1,0-5.6-2.51-5.6-5.6V35.39c0-3.1,2.51-5.6,5.6-5.6h212.92c3.1,0,5.6,2.51,5.6,5.6V439.6
	C892.77,442.69,890.26,445.2,887.16,445.2z"/>
<linearGradient id="SVGID_00000160884676926552969070000015327207243555152806_" gradientUnits="userSpaceOnUse" x1="686.4039" y1="23.2544" x2="705.8956" y2="23.2544">
	<stop  offset="0" style="stop-color:#72A122"/>
	<stop  offset="1" style="stop-color:#4F8A01"/>
</linearGradient>
<path style="fill:url(#SVGID_00000160884676926552969070000015327207243555152806_);" d="M696.15,16.73L696.15,16.73
	c-5.38,0-9.75,4.36-9.75,9.75v3.31h19.49v-3.31C705.9,21.09,701.53,16.73,696.15,16.73z"/>
<linearGradient id="SVGID_00000139256960798088065060000004672214113957161123_" gradientUnits="userSpaceOnUse" x1="892.7657" y1="285.3946" x2="905.8199" y2="285.3946">
	<stop  offset="0" style="stop-color:#72A122"/>
	<stop  offset="1" style="stop-color:#4F8A01"/>
</linearGradient>
<path style="fill:url(#SVGID_00000139256960798088065060000004672214113957161123_);" d="M905.82,289.95v-9.1
	c0-2.87-2.33-5.19-5.19-5.19h-7.86v19.49h7.86C903.49,295.14,905.82,292.81,905.82,289.95z"/>
<linearGradient id="SVGID_00000078029995359621301440000011376481049977486007_" gradientUnits="userSpaceOnUse" x1="696.1497" y1="70.9407" x2="779.392" y2="70.9407">
	<stop  offset="0" style="stop-color:#9BC750"/>
	<stop  offset="1" style="stop-color:#74B023"/>
</linearGradient>
<path style="fill:url(#SVGID_00000078029995359621301440000011376481049977486007_);" d="M769.65,16.73h-52.13h-21.37
	c5.38,0,9.75,4.36,9.75,9.75v3.31v71.29l36.75,24.08l36.75-24.08V29.78v-3.31C779.39,21.09,775.03,16.73,769.65,16.73z"/>
<linearGradient id="SVGID_00000039823215640396067950000009827095904390400934_" gradientUnits="userSpaceOnUse" x1="653.9773" y1="353.9137" x2="905.8199" y2="353.9137">
	<stop  offset="0" style="stop-color:#9BC750"/>
	<stop  offset="1" style="stop-color:#74B023"/>
</linearGradient>
<path style="fill:url(#SVGID_00000039823215640396067950000009827095904390400934_);" d="M896.07,295.14h-3.31H665.78
	c-6.52,0-11.8,5.28-11.8,11.8v103.69c0,6.52,5.28,11.8,11.8,11.8h226.99h3.31c5.38,0,9.75-4.36,9.75-9.75V295.14v-9.75
	C905.82,290.78,901.46,295.14,896.07,295.14z"/>
<text transform="matrix(1 0 0 1 711.5272 52.0851)" class="st6 st7 st8">STEP</text>
<text transform="matrix(1 0 0 1 703.1141 94.8166)" class="st6 st9 st10">03</text>
<linearGradient id="SVGID_00000150087235528447315630000011578839896688982939_" gradientUnits="userSpaceOnUse" x1="1098.0778" y1="24.6853" x2="1100.4368" y2="454.0569">
	<stop  offset="0" style="stop-color:#FFC1C6"/>
	<stop  offset="1" style="stop-color:#FF6570"/>
</linearGradient>
<path style="fill:url(#SVGID_00000150087235528447315630000011578839896688982939_);" d="M1205.7,445.2H992.79
	c-3.1,0-5.6-2.51-5.6-5.6V35.39c0-3.1,2.51-5.6,5.6-5.6h212.92c3.1,0,5.6,2.51,5.6,5.6V439.6
	C1211.31,442.69,1208.8,445.2,1205.7,445.2z"/>
<linearGradient id="SVGID_00000133525917212351625960000016366039380282239378_" gradientUnits="userSpaceOnUse" x1="1004.9476" y1="23.2544" x2="1024.4393" y2="23.2544">
	<stop  offset="0" style="stop-color:#D16270"/>
	<stop  offset="1" style="stop-color:#C90028"/>
</linearGradient>
<path style="fill:url(#SVGID_00000133525917212351625960000016366039380282239378_);" d="M1014.69,16.73L1014.69,16.73
	c-5.38,0-9.75,4.36-9.75,9.75v3.31h19.49v-3.31C1024.44,21.09,1020.08,16.73,1014.69,16.73z"/>
<linearGradient id="SVGID_00000153698844955849637370000003599683535584423581_" gradientUnits="userSpaceOnUse" x1="1211.3094" y1="285.3946" x2="1224.3636" y2="285.3946">
	<stop  offset="0" style="stop-color:#D16270"/>
	<stop  offset="1" style="stop-color:#C90028"/>
</linearGradient>
<path style="fill:url(#SVGID_00000153698844955849637370000003599683535584423581_);" d="M1224.36,289.95v-9.1
	c0-2.87-2.33-5.19-5.19-5.19h-7.86v19.49h7.86C1222.04,295.14,1224.36,292.81,1224.36,289.95z"/>
<linearGradient id="SVGID_00000012454584230767620570000009876815280768727188_" gradientUnits="userSpaceOnUse" x1="1014.6935" y1="70.9407" x2="1097.9355" y2="70.9407">
	<stop  offset="0" style="stop-color:#FA4E6F"/>
	<stop  offset="1" style="stop-color:#FA0042"/>
</linearGradient>
<path style="fill:url(#SVGID_00000012454584230767620570000009876815280768727188_);" d="M1088.19,16.73h-52.13h-21.37
	c5.38,0,9.75,4.36,9.75,9.75v3.31v71.29l36.75,24.08l36.75-24.08V29.78v-3.31C1097.94,21.09,1093.57,16.73,1088.19,16.73z"/>
<linearGradient id="SVGID_00000168109777430731001210000004761824414565225857_" gradientUnits="userSpaceOnUse" x1="972.5211" y1="353.9137" x2="1224.3635" y2="353.9137">
	<stop  offset="0" style="stop-color:#FA4E6F"/>
	<stop  offset="1" style="stop-color:#FA0042"/>
</linearGradient>
<path style="fill:url(#SVGID_00000168109777430731001210000004761824414565225857_);" d="M1214.62,295.14h-3.31H984.32
	c-6.52,0-11.8,5.28-11.8,11.8v103.69c0,6.52,5.28,11.8,11.8,11.8h226.99h3.31c5.38,0,9.75-4.36,9.75-9.75V295.14v-9.75
	C1224.36,290.78,1220,295.14,1214.62,295.14z"/>
<text transform="matrix(1 0 0 1 1030.0702 52.0851)" class="st6 st7 st8">STEP</text>
<text transform="matrix(1 0 0 1 1020.3597 94.8166)" class="st6 st9 st10">04</text>
<linearGradient id="SVGID_00000008869809106366549480000009487945047617411212_" gradientUnits="userSpaceOnUse" x1="131.9065" y1="500.4503" x2="155.3253" y2="500.4503">
	<stop  offset="0" style="stop-color:#89A6D0"/>
	<stop  offset="1" style="stop-color:#4C6DB1"/>
</linearGradient>
<circle style="fill:url(#SVGID_00000008869809106366549480000009487945047617411212_);" cx="143.62" cy="500.45" r="11.71"/>
<linearGradient id="SVGID_00000039111388815141058020000000207858108091786404_" gradientUnits="userSpaceOnUse" x1="446.5967" y1="500.4503" x2="470.0157" y2="500.4503">
	<stop  offset="0" style="stop-color:#F8A34A"/>
	<stop  offset="1" style="stop-color:#DE7200"/>
</linearGradient>
<path style="fill:url(#SVGID_00000039111388815141058020000000207858108091786404_);" d="M470.02,500.45
	c0,6.47-5.24,11.71-11.71,11.71c-6.47,0-11.71-5.24-11.71-11.71c0-6.47,5.24-11.71,11.71-11.71
	C464.77,488.74,470.02,493.98,470.02,500.45z"/>
<linearGradient id="SVGID_00000067925100607952914520000016650576213043706253_" gradientUnits="userSpaceOnUse" x1="773.3591" y1="500.4503" x2="796.778" y2="500.4503">
	<stop  offset="0" style="stop-color:#9BC750"/>
	<stop  offset="1" style="stop-color:#74B023"/>
</linearGradient>
<circle style="fill:url(#SVGID_00000067925100607952914520000016650576213043706253_);" cx="785.07" cy="500.45" r="11.71"/>
<linearGradient id="SVGID_00000154387792655046890530000010633695862850349713_" gradientUnits="userSpaceOnUse" x1="1088.3422" y1="500.4503" x2="1111.761" y2="500.4503">
	<stop  offset="0" style="stop-color:#FA4E6F"/>
	<stop  offset="1" style="stop-color:#FA0042"/>
</linearGradient>
<circle style="fill:url(#SVGID_00000154387792655046890530000010633695862850349713_);" cx="1100.05" cy="500.45" r="11.71"/>
<g>
	<path class="st32" d="M110.03,165.49c3.82,0,7.26,1.72,9.74,4.5c2.43,2.72,3.93,6.45,3.93,10.55s-1.5,7.83-3.93,10.55
		c-2.48,2.78-5.93,4.5-9.74,4.5c-3.82,0-7.26-1.72-9.74-4.5c-2.43-2.72-3.93-6.45-3.93-10.55s1.5-7.83,3.93-10.55
		C102.77,167.21,106.21,165.49,110.03,165.49L110.03,165.49z M116.56,172.87c-1.68-1.88-3.99-3.04-6.53-3.04
		c-2.54,0-4.85,1.16-6.53,3.04c-1.74,1.94-2.81,4.65-2.81,7.67c0,3.01,1.07,5.72,2.81,7.67c1.68,1.88,3.99,3.04,6.53,3.04
		c2.54,0,4.85-1.16,6.53-3.04c1.74-1.94,2.81-4.65,2.81-7.67S118.29,174.82,116.56,172.87z"/>
	<path class="st32" d="M134.92,232.04H85.14h-2.25l0.09-2.25c0.75-17.79,7.39-29.54,15.76-34.98c3.6-2.34,7.52-3.53,11.46-3.55
		c3.95-0.02,7.87,1.14,11.46,3.48c8.2,5.36,14.67,16.99,15.43,35.05l0.09,2.25H134.92L134.92,232.04z M87.43,227.71h45.21
		c-1.09-15.18-6.55-24.89-13.35-29.34c-2.87-1.88-5.98-2.8-9.07-2.79c-3.1,0.01-6.23,0.97-9.12,2.85
		C94.14,202.96,88.53,212.75,87.43,227.71z"/>
	<path class="st32" d="M79.9,154.39h116.38c3.08,0,5.89,1.26,7.91,3.29c2.03,2.03,3.29,4.83,3.29,7.91v66.34
		c0,3.08-1.26,5.88-3.29,7.91c-2.03,2.03-4.83,3.29-7.91,3.29H79.9c-3.08,0-5.89-1.26-7.91-3.29c-2.03-2.03-3.29-4.83-3.29-7.91
		V165.6c0-3.08,1.26-5.89,3.29-7.91C74.01,155.65,76.81,154.39,79.9,154.39L79.9,154.39z M196.27,158.73H79.9
		c-1.89,0-3.6,0.77-4.85,2.02c-1.25,1.25-2.02,2.96-2.02,4.85v66.34c0,1.89,0.77,3.6,2.02,4.85c1.25,1.25,2.96,2.02,4.85,2.02
		h116.38c1.89,0,3.6-0.77,4.85-2.02c1.25-1.25,2.02-2.96,2.02-4.85V165.6c0-1.89-0.77-3.6-2.02-4.85
		C199.88,159.5,198.16,158.73,196.27,158.73z"/>
	<path class="st32" d="M148.16,176.61c-1.2,0-2.17,0.97-2.17,2.17c0,1.2,0.97,2.17,2.17,2.17h42.87c1.2,0,2.17-0.97,2.17-2.17
		c0-1.2-0.97-2.17-2.17-2.17H148.16z"/>
	<path class="st32" d="M148.16,189.94c-1.2,0-2.17,0.97-2.17,2.17c0,1.2,0.97,2.17,2.17,2.17h42.87c1.2,0,2.17-0.97,2.17-2.17
		c0-1.2-0.97-2.17-2.17-2.17H148.16z"/>
	<path class="st32" d="M148.16,203.26c-1.2,0-2.17,0.97-2.17,2.17c0,1.2,0.97,2.17,2.17,2.17h42.87c1.2,0,2.17-0.97,2.17-2.17
		c0-1.2-0.97-2.17-2.17-2.17H148.16z"/>
	<path class="st32" d="M148.16,216.59c-1.2,0-2.17,0.97-2.17,2.17c0,1.2,0.97,2.17,2.17,2.17h42.87c1.2,0,2.17-0.97,2.17-2.17
		c0-1.2-0.97-2.17-2.17-2.17H148.16z"/>
</g>
<g>
	<path class="st33" d="M489.83,238.35c0,2.64,0,5.15,0,7.65c0,1.7-0.53,2.24-2.19,2.24c-21.64,0-43.27,0-64.91,0
		c-1.61,0-2.15-0.55-2.15-2.17c0-28.23,0-56.46,0-84.69c0-1.62,0.54-2.17,2.15-2.17c2.54-0.01,5.07,0,7.68,0
		c0.02-0.36,0.06-0.66,0.06-0.95c0-2.2,0-4.4,0-6.59c0-1.87,0.48-2.34,2.39-2.34c0.03,0,0.07,0,0.1,0c17.04,0,34.07,0.01,51.11-0.02
		c1.04,0,1.81,0.3,2.55,1.04c4.03,4.08,8.09,8.13,12.16,12.17c0.66,0.65,0.96,1.34,0.96,2.27c-0.02,23.77-0.01,47.53-0.02,71.3
		c0,1.76-0.51,2.28-2.26,2.28C494.97,238.35,492.47,238.35,489.83,238.35z M433.84,152.65c0,27.51,0,54.93,0,82.33
		c20.89,0,41.72,0,62.51,0c0-23.1,0-46.12,0-69.18c-3.76,0-7.43,0.01-11.1,0c-1.41,0-2-0.59-2-2.01c-0.01-2.95,0-5.91,0-8.86
		c0-0.74,0-1.49,0-2.27C466.72,152.65,450.31,152.65,433.84,152.65z M486.46,244.9c0-2.22,0-4.36,0-6.55c-0.48,0-0.89,0-1.3,0
		c-17.34,0-34.69,0-52.03,0c-2.3,0-2.66-0.37-2.66-2.7c0-23.94,0-47.87,0-71.81c0-0.43,0-0.86,0-1.28c-2.27,0-4.38,0-6.54,0
		c0,27.47,0,54.89,0,82.35C444.79,244.9,465.59,244.9,486.46,244.9z M493.56,162.45c-2.29-2.3-4.68-4.71-6.97-7.01
		c0,2.18,0,4.57,0,7.01C489.02,162.45,491.41,162.45,493.56,162.45z"/>
	<path class="st33" d="M475.02,195.48c9.88-0.02,18.06,8.11,18.1,17.99c0.04,10.05-8.05,18.26-18.01,18.28
		c-10.1,0.02-18.23-8.05-18.26-18.14C456.83,203.63,464.97,195.5,475.02,195.48z M475.01,198.78c-8.23,0.02-14.85,6.65-14.85,14.88
		c0,8.17,6.7,14.82,14.93,14.8c8.12-0.02,14.79-6.75,14.75-14.88C489.79,205.4,483.14,198.76,475.01,198.78z"/>
	<path class="st33" d="M468.46,172.39c-5.26,0-10.51,0-15.77,0c-0.31,0-0.62,0.02-0.93-0.02c-0.9-0.11-1.54-0.82-1.49-1.67
		c0.05-0.91,0.58-1.44,1.47-1.59c0.27-0.04,0.55-0.02,0.82-0.02c10.55,0,21.09,0,31.64,0c0.31,0,0.62-0.02,0.93,0.03
		c0.84,0.13,1.44,0.84,1.39,1.66c-0.05,0.86-0.54,1.4-1.37,1.57c-0.33,0.07-0.68,0.04-1.03,0.04
		C478.9,172.39,473.68,172.39,468.46,172.39z"/>
	<path class="st33" d="M457.68,192.18c-4.98,0-9.96,0-14.94,0c-0.31,0-0.63,0.03-0.93-0.03c-0.89-0.17-1.43-0.71-1.43-1.62
		c0-0.91,0.53-1.46,1.42-1.62c0.3-0.06,0.62-0.03,0.93-0.03c9.96,0,19.92,0,29.88,0c0.31,0,0.63-0.03,0.93,0.02
		c0.89,0.16,1.43,0.71,1.43,1.62c0,0.91-0.54,1.46-1.42,1.62c-0.3,0.06-0.62,0.03-0.93,0.03
		C467.64,192.18,462.66,192.18,457.68,192.18z"/>
	<path class="st33" d="M477.57,178.99c3.4,0,6.8,0,10.2,0c1.3,0,2.05,0.62,2.05,1.65c0,1.03-0.76,1.65-2.06,1.65
		c-6.87,0-13.74,0-20.61,0c-1.3,0-2.05-0.62-2.05-1.65c0-1.03,0.75-1.64,2.05-1.64C470.63,178.99,474.1,178.99,477.57,178.99z"/>
	<path class="st33" d="M451.2,178.99c2.85,0,5.7,0,8.55,0c1.29,0,2.05,0.63,2.04,1.66c-0.01,1.02-0.77,1.63-2.07,1.63
		c-5.77,0-11.54,0.01-17.31,0c-1.29,0-2.05-0.63-2.04-1.66c0.01-1.03,0.76-1.63,2.07-1.63C445.36,178.99,448.28,178.99,451.2,178.99
		z"/>
	<path class="st33" d="M465.06,162.5c-2.61,0-5.22,0.01-7.83,0c-1.28,0-2.04-0.65-2.02-1.68c0.02-1,0.75-1.61,1.98-1.61
		c5.25-0.01,10.51-0.01,15.76,0c1.28,0,2.04,0.65,2.02,1.68c-0.02,0.99-0.76,1.61-1.99,1.61
		C470.35,162.51,467.71,162.5,465.06,162.5z"/>
	<path class="st33" d="M449.54,198.78c2.3,0,4.6-0.01,6.9,0c1.3,0,2.05,0.62,2.05,1.65c0,1.03-0.76,1.65-2.06,1.65
		c-4.67,0.01-9.34,0.01-14.01,0c-1.3,0-2.05-0.62-2.05-1.65c0-1.03,0.75-1.64,2.05-1.64C444.8,198.77,447.17,198.78,449.54,198.78z"
		/>
	<path class="st33" d="M447.89,218.56c1.79,0,3.57-0.01,5.36,0c1.21,0.01,1.95,0.65,1.95,1.65c0,1-0.74,1.64-1.95,1.64
		c-3.64,0.01-7.28,0.01-10.92,0c-1.21,0-1.95-0.65-1.95-1.65c0-1,0.73-1.63,1.95-1.64C444.18,218.56,446.03,218.56,447.89,218.56z"
		/>
	<path class="st33" d="M446.87,211.97c-1.55,0-3.09,0.01-4.64,0c-1.13-0.01-1.85-0.66-1.86-1.63c-0.01-0.97,0.71-1.65,1.83-1.65
		c3.16-0.02,6.32-0.02,9.48,0c1.14,0.01,1.85,0.66,1.86,1.63c0.01,0.97-0.71,1.64-1.84,1.66
		C450.1,211.98,448.48,211.97,446.87,211.97z"/>
	<path class="st33" d="M484.06,192.18c-1.3,0-2.61,0.02-3.91,0c-1.13-0.02-1.85-0.67-1.85-1.64c0-0.97,0.71-1.64,1.85-1.64
		c2.61-0.02,5.22-0.02,7.83,0c1.13,0.01,1.85,0.67,1.85,1.64c0,0.97-0.72,1.63-1.85,1.65C486.67,192.2,485.37,192.18,484.06,192.18z
		"/>
	<path class="st33" d="M470.32,217.63c1.25-1.26,2.43-2.45,3.62-3.64c2.62-2.62,5.23-5.24,7.86-7.86c0.92-0.92,1.88-1,2.61-0.25
		c0.7,0.72,0.63,1.67-0.23,2.54c-4.24,4.25-8.48,8.5-12.73,12.73c-1.06,1.05-2.08,0.95-2.91-0.26c-1.03-1.5-2.03-3.01-3.02-4.53
		c-0.63-0.97-0.49-1.89,0.31-2.45c0.84-0.58,1.76-0.34,2.45,0.67C468.94,215.56,469.6,216.56,470.32,217.63z"/>
</g>
<rect x="350.1" y="328.37" class="st34" width="218.39" height="94.24"/>
<text transform="matrix(1 0 0 1 353.6314 349.461)"><tspan x="0" y="0" class="st6 st11 st35">FILL CONTACT </tspan><tspan x="2.61" y="34.8" class="st6 st11 st35">INFORMATION</tspan></text>
<rect x="671.51" y="328.37" class="st34" width="218.39" height="94.24"/>
<text transform="matrix(1 0 0 1 742.1264 349.461)"><tspan x="0" y="0" class="st6 st11 st35">FACE </tspan><tspan x="-59.44" y="34.8" class="st6 st11 st35">VERFICATION</tspan></text>
<rect x="990.05" y="328.37" class="st34" width="218.39" height="94.24"/>
<text transform="matrix(1 0 0 1 1042.9723 349.461)"><tspan x="0" y="0" class="st6 st11 st35">SUBMIT </tspan><tspan x="-51.34" y="34.8" class="st6 st11 st35">REGISTRATION</tspan></text>
<g>
	<path class="st36" d="M816.32,224.21c6.05,0,12.09,0,18.23,0c0,1.66,0,3.2,0,4.95c-0.45,0-0.91,0-1.37,0
		c-5.43,0-10.86,0.03-16.28-0.02c-1.05-0.01-1.55,0.18-1.73,1.35c-0.49,3.13-2.15,5.74-4.36,7.89c-2.55,2.49-5.2,4.92-8.03,7.08
		c-8.6,6.55-20.56,6.05-28.82-0.35c-3.35-2.6-6.44-5.44-9.04-8.81c-1.4-1.82-2.4-3.81-2.74-6.08c-0.13-0.87-0.51-1.08-1.35-1.08
		c-5.51,0.04-11.02,0.02-16.52,0.02c-0.47,0-0.94,0-1.48,0c0-1.7,0-3.24,0-4.9c6.1,0,12.15,0,18.34,0c-0.14-0.23-0.18-0.35-0.25-0.4
		c-3.81-2.17-6.12-5.56-7.37-9.62c-0.76-2.47-1.24-5.07-1.46-7.64c-0.2-2.38,0.83-4.41,3.09-5.56c0.81-0.41,0.47-1.02,0.39-1.55
		c-0.75-5.22-0.68-10.41,0.53-15.57c3.42-14.55,16.14-24.81,31.07-25.38c12.32-0.48,21.95,4.34,29.11,14.16
		c4.57,6.27,6.22,13.5,6.01,21.18c-0.05,1.96-0.35,3.92-0.48,5.88c-0.02,0.37,0.09,0.96,0.34,1.09c2.92,1.55,3.49,4.2,3.19,7.1
		c-0.5,4.72-2.03,9.11-5.16,12.76C819.07,221.99,817.66,223.01,816.32,224.21z M815.1,206.59c-0.04-0.22-0.08-0.3-0.06-0.37
		c0.36-1.23,0.77-2.45,1.1-3.69c1.92-7.36,1.86-14.66-1.02-21.76c-4.33-10.69-14.79-17.46-26.32-17.33
		c-10.04,0.11-18.09,4.1-23.8,12.35c-5.02,7.25-5.82,15.42-4.35,23.91c0.39,2.23,1.11,4.4,1.68,6.59c-0.11,0.03-0.19,0.08-0.26,0.07
		c-1.01-0.25-2.03-0.5-3.04-0.75c-1.82-0.46-2.25-0.16-2.06,1.68c0.33,3.19,1.2,6.23,2.95,8.95c1.22,1.91,2.79,3.41,5.15,3.87
		c0.31,0.06,0.7,0.57,0.77,0.93c0.21,1.04,0.28,2.11,0.4,3.15c15.07,0,29.97,0,44.95,0c0.12-1.08,0.18-2.13,0.39-3.14
		c0.07-0.35,0.46-0.84,0.79-0.91c1.79-0.4,3.12-1.43,4.24-2.8c1.63-2,2.65-4.31,3.23-6.8c0.32-1.36,0.47-2.76,0.58-4.15
		c0.07-0.89-0.46-1.21-1.32-0.96C817.78,205.81,816.47,206.19,815.1,206.59z M766.74,229.23c0.7,1.4,1.16,2.69,1.92,3.75
		c2.53,3.53,5.7,6.42,9.28,8.86c4.36,2.98,9.17,4.11,14.32,2.96c7.67-1.71,12.93-6.79,17.26-12.99c0.49-0.7,0.62-1.66,0.94-2.58
		C795.86,229.23,781.5,229.23,766.74,229.23z"/>
	<path class="st36" d="M734.38,149.84c0,4.54,0,8.86,0,13.28c-1.67,0-3.25,0-4.91,0c0-6.01,0-12.01,0-18.11c6.01,0,12.01,0,18.11,0
		c0,1.54,0,3.12,0,4.83C743.27,149.84,738.91,149.84,734.38,149.84z"/>
	<path class="st36" d="M829.78,149.92c0-1.77,0-3.32,0-4.94c6.06,0,12.07,0,18.15,0c0,6.05,0,12.05,0,18.14c-1.58,0-3.16,0-4.87,0
		c0-4.36,0-8.72,0-13.2C838.58,149.92,834.22,149.92,829.78,149.92z"/>
	<path class="st36" d="M729.46,263.44c0-6.06,0-12.06,0-18.13c1.63,0,3.21,0,4.88,0c0,4.39,0,8.71,0,13.21c4.47,0,8.85,0,13.29,0
		c0,1.73,0,3.28,0,4.92C741.62,263.44,735.62,263.44,729.46,263.44z"/>
	<path class="st36" d="M847.9,263.48c-6.08,0-12.06,0-18.11,0c0-1.63,0-3.21,0-4.92c4.4,0,8.75,0,13.24,0c0-4.48,0-8.84,0-13.26
		c1.68,0,3.24,0,4.87,0C847.9,251.36,847.9,257.41,847.9,263.48z"/>
</g>
<g>
	<path class="st37" d="M1173.52,222.01c-0.1,0.31-0.23,0.61-0.31,0.93c-1.28,5.1-5.48,8.47-10.94,8.71c-2.2,0.09-4.4,0.05-6.6,0.02
		c-1.61-0.02-2.51-0.83-2.53-2.13c-0.02-1.36,0.9-2.14,2.62-2.15c1.96-0.02,3.92,0.01,5.88-0.01c4.67-0.05,7.57-2.98,7.57-7.67
		c0.01-11.86,0.01-23.72,0-35.59c0-4.75-2.92-7.69-7.7-7.69c-40.99-0.01-81.98-0.01-122.97,0c-4.75,0-7.65,2.95-7.65,7.74
		c0,11.77,0,23.53,0,35.3c0,5.06,2.83,7.91,7.9,7.91c27.6,0.01,55.2,0,82.79,0c0.57,0,1.15-0.02,1.72,0.05
		c1.18,0.13,1.82,0.89,1.87,2.01c0.05,1.13-0.57,1.91-1.71,2.15c-0.46,0.1-0.95,0.1-1.43,0.1c-27.74,0-55.48,0.01-83.22,0
		c-7.51,0-12.23-4.77-12.23-12.32c0-11.62,0-23.25,0-34.87c0-7.63,4.72-12.37,12.33-12.37c40.66,0,81.31,0,121.97,0
		c6.82,0,10.65,2.91,12.49,9.48c0.02,0.09,0.1,0.16,0.15,0.24C1173.52,195.22,1173.52,208.61,1173.52,222.01z"/>
	<path class="st37" d="M1148.15,243.52c2.36,3.34,4.54,6.41,6.68,9.51c0.37,0.53,0.86,1.3,0.71,1.78c-0.24,0.76-0.83,1.61-1.51,1.99
		c-0.95,0.53-1.84-0.09-2.44-0.94c-1.99-2.8-3.97-5.62-5.95-8.42c-0.3-0.43-0.62-0.84-1.03-1.4c-1.29,2.91-2.51,5.7-3.77,8.47
		c-0.66,1.45-2,2.02-3.1,1.23c-0.53-0.38-0.99-1.08-1.13-1.72c-2.16-9.44-4.25-18.89-6.36-28.34c-0.23-1.04-0.19-2.02,0.79-2.7
		c0.97-0.68,1.88-0.39,2.79,0.19c8.12,5.12,16.24,10.22,24.37,15.32c1,0.63,1.77,1.38,1.44,2.67c-0.33,1.28-1.35,1.62-2.53,1.7
		C1154.21,243.07,1151.31,243.29,1148.15,243.52z M1150.38,239c0.02-0.1,0.05-0.19,0.07-0.29c-4.89-3.07-9.77-6.14-14.97-9.41
		c1.35,6.04,2.62,11.7,3.97,17.74c0.97-2.19,1.78-3.96,2.53-5.76c0.5-1.19,1.29-1.77,2.61-1.83
		C1146.53,239.38,1148.45,239.16,1150.38,239z"/>
	<path class="st37" d="M1125.21,199.64c-0.72,2.5-1.45,5.01-2.16,7.51c-0.5,1.74-0.98,3.49-1.49,5.24
		c-0.45,1.54-1.42,2.41-2.69,2.34c-1.42-0.08-2.22-0.92-2.61-2.26c-1.17-4.03-2.37-8.06-3.57-12.09c-0.08-0.26-0.2-0.5-0.45-1.1
		c-0.76,4.18-1.45,8-2.14,11.82c-0.09,0.47-0.17,0.94-0.27,1.41c-0.32,1.48-1.37,2.28-2.62,2c-1.2-0.27-1.85-1.37-1.6-2.78
		c0.55-3.1,1.11-6.21,1.67-9.31c0.63-3.48,1.28-6.95,1.92-10.43c0.34-1.85,1.13-2.74,2.51-2.84c1.43-0.1,2.39,0.73,2.93,2.59
		c1.26,4.26,2.51,8.52,3.77,12.78c0.12,0.4,0.26,0.79,0.49,1.45c1.22-4.25,2.37-8.24,3.51-12.22c0.22-0.78,0.42-1.57,0.65-2.35
		c0.46-1.53,1.43-2.31,2.75-2.25c1.33,0.06,2.24,0.9,2.55,2.47c0.82,4.17,1.6,8.35,2.39,12.53c0.45,2.35,0.93,4.68,1.34,7.04
		c0.12,0.69,0.26,1.6-0.07,2.07c-0.43,0.6-1.3,1.14-2.03,1.22c-1.15,0.12-1.79-0.78-2-1.86c-0.53-2.67-1.02-5.35-1.53-8.02
		c-0.31-1.64-0.63-3.28-0.95-4.92C1125.41,199.66,1125.31,199.65,1125.21,199.64z"/>
	<path class="st37" d="M1099.93,199.96c1,1.8,2.18,3.25,2.67,4.92c1.35,4.55-1.8,9.22-6.51,9.69c-2.74,0.28-5.53,0.19-8.3,0.15
		c-1.31-0.02-2.13-0.82-2.13-2.21c-0.01-7.07-0.01-14.13,0-21.2c0-1.39,0.85-2.14,2.16-2.17c2.19-0.06,4.4-0.14,6.58,0.04
		c5.36,0.46,8.16,5.76,5.65,10.53C1099.95,199.92,1099.84,200.12,1099.93,199.96z M1090.02,210.43c1.69,0,3.21,0.01,4.74-0.01
		c0.33,0,0.67-0.06,0.99-0.13c1.69-0.35,2.85-1.77,2.86-3.46c0.01-1.68-1.2-3.31-2.84-3.45c-1.88-0.16-3.78-0.04-5.75-0.04
		C1090.02,205.72,1090.02,207.99,1090.02,210.43z M1090.02,198.87c1.53,0,2.97,0.11,4.37-0.03c1.43-0.15,2.28-1.28,2.27-2.68
		c-0.01-1.34-0.81-2.46-2.18-2.61c-1.45-0.15-2.93-0.03-4.47-0.03C1090.02,195.29,1090.02,196.99,1090.02,198.87z"/>
	<path class="st37" d="M1062.39,199.05c0-2.44-0.01-4.88,0-7.31c0.01-1.63,0.75-2.54,2.04-2.59c1.33-0.05,2.24,0.93,2.25,2.56
		c0.03,4.54,0,9.08,0.01,13.62c0.01,2.55,1.36,4.31,3.72,4.91c2.35,0.6,5.22-0.46,6.24-2.44c0.35-0.68,0.46-1.55,0.47-2.34
		c0.04-4.35,0.02-8.7,0.02-13.05c0-0.43-0.03-0.87,0.03-1.29c0.17-1.24,1.09-2.03,2.23-1.98c1.16,0.05,1.99,0.87,2.02,2.17
		c0.05,2.39,0.02,4.78,0.02,7.17c0,2.29-0.1,4.59,0.02,6.88c0.32,6.21-5.55,9.6-10.21,9.37c-4.1-0.21-9.28-3.68-8.89-9.52
		C1062.5,203.17,1062.39,201.11,1062.39,199.05z"/>
	<path class="st37" d="M1049.81,188.79c2.63,0.4,4.88,1.26,6.92,2.69c1.26,0.88,1.56,2.16,0.82,3.21c-0.76,1.07-1.92,1.21-3.28,0.32
		c-1.73-1.14-3.56-1.84-5.67-1.43c-1.25,0.24-2.28,0.8-2.51,2.19c-0.24,1.47,0.76,2,1.9,2.44c1.6,0.61,3.19,1.28,4.78,1.92
		c0.35,0.14,0.72,0.27,1.06,0.43c3.58,1.7,5.36,4.76,4.66,7.99c-0.77,3.55-4.26,6.21-8.3,6.19c-3.27-0.01-6.19-1.07-8.59-3.37
		c-1.2-1.15-1.37-2.44-0.49-3.39c0.87-0.95,2.18-0.86,3.4,0.24c1.96,1.77,4.24,2.56,6.86,2.02c1.56-0.32,2.87-1.54,2.95-2.77
		c0.1-1.61-1.02-2.41-2.28-2.97c-2.05-0.91-4.14-1.74-6.22-2.55c-2.36-0.92-3.74-2.62-4.02-5.11c-0.3-2.73,0.76-4.97,3.1-6.31
		C1046.38,189.68,1048.16,189.35,1049.81,188.79z"/>
	<path class="st37" d="M1154.84,193.64c0,0.44,0,0.95,0,1.47c0,5.4,0,10.79,0,16.19c0,0.33,0.01,0.67,0,1
		c-0.07,1.51-0.97,2.49-2.24,2.44c-1.24-0.05-2.05-0.97-2.05-2.45c-0.02-5.68-0.01-11.36-0.01-17.04c0-0.52,0-1.04,0-1.83
		c-1.14,0-2.21,0.01-3.28,0c-1.62-0.03-2.53-0.77-2.57-2.06c-0.04-1.34,0.91-2.21,2.58-2.23c3.63-0.03,7.26-0.03,10.89,0
		c1.67,0.02,2.59,0.89,2.53,2.26c-0.05,1.31-0.93,2-2.59,2.03c-0.95,0.02-1.91,0.02-2.86,0.05
		C1155.16,193.45,1155.07,193.53,1154.84,193.64z"/>
	<path class="st37" d="M1140.45,201.92c0,3.2,0,6.4,0,9.6c0,0.43,0.02,0.87-0.05,1.29c-0.2,1.19-0.93,1.87-2.14,1.92
		c-1.14,0.04-2.04-0.84-2.08-2.1c-0.06-1.81-0.03-3.63-0.03-5.44c0-5.11-0.01-10.22,0-15.33c0-1.73,0.74-2.67,2.07-2.7
		c1.37-0.03,2.21,0.98,2.22,2.74C1140.46,195.23,1140.45,198.57,1140.45,201.92z"/>
</g>
</svg>
