<?xml version="1.0" encoding="utf-8"?>
<!-- Generator: Adobe Illustrator 27.2.0, SVG Export Plug-In . SVG Version: 6.00 Build 0)  -->
<svg version="1.1" id="OBJECTS" xmlns="http://www.w3.org/2000/svg" xmlns:xlink="http://www.w3.org/1999/xlink" x="0px" y="0px"
	 viewBox="0 0 1241.25 528.89" style="enable-background:new 0 0 1241.25 528.89;" xml:space="preserve">
<style type="text/css">
	.st0{fill:#BCBEC0;}
	.st1{fill:url(#SVGID_1_);}
	.st2{fill:url(#SVGID_00000049223998245179682560000005281176207491095943_);}
	.st3{fill:url(#SVGID_00000178912930475892864080000015326368108502511491_);}
	.st4{fill:url(#SVGID_00000148638583701674430910000006482992746446970510_);}
	.st5{fill:url(#SVGID_00000102536909506570210460000017027741189205685922_);}
	.st6{fill:#FFFFFF;}
	.st7{fill:url(#SVGID_00000140730662903455759990000012898098578160306560_);}
	.st8{fill:url(#SVGID_00000047754697968310946360000000317317572868905658_);}
	.st9{fill:url(#SVGID_00000139276930770412482700000009517022300800492168_);}
	.st10{fill:url(#SVGID_00000026867724113274774540000016621684350442805178_);}
	.st11{fill:url(#SVGID_00000053508637834948397800000017913820613397088394_);}
	.st12{fill:url(#SVGID_00000096752179315978626400000007284886438161861278_);}
	.st13{fill:url(#SVGID_00000025411509336953792030000003682041996333800876_);}
	.st14{fill:url(#SVGID_00000101102017432307661400000013763349111617902740_);}
	.st15{fill:url(#SVGID_00000080190182211763782920000009961255203396723135_);}
	.st16{fill:url(#SVGID_00000097482416936121644980000012391334196955896972_);}
	.st17{fill:url(#SVGID_00000054958245160322742350000013073370127070657426_);}
	.st18{fill:url(#SVGID_00000140726185279090307650000011275318294923871407_);}
	.st19{fill:url(#SVGID_00000138530938727199018480000009764447424217370267_);}
	.st20{fill:url(#SVGID_00000026157008377013339400000005967192754416624310_);}
	.st21{fill:url(#SVGID_00000172398353919552901640000013389809163112498324_);}
	.st22{fill:url(#SVGID_00000183955417908980655510000008304041248988389545_);}
	.st23{fill:url(#SVGID_00000176002608317218298030000007649321159499720080_);}
	.st24{fill:url(#SVGID_00000059275259391622115290000001173702581519610240_);}
	.st25{fill:url(#SVGID_00000045577008974062182670000006352476515865307327_);}
	.st26{fill:#294F9E;}
	.st27{fill:#F77E00;}
	.st28{fill:#4B8500;}
	.st29{fill:#DE1D2B;}
</style>
<path class="st0" d="M1172.9,497.8h-70.19V445.2h-5.31v52.59H787.72V445.2h-5.31v52.59H460.96V445.2h-5.31v52.59H146.27V445.2h-5.31
	v52.59H68.35c-1.47,0-2.65,1.19-2.65,2.65s1.19,2.65,2.65,2.65H1172.9c1.47,0,2.65-1.19,2.65-2.65S1174.36,497.8,1172.9,497.8z"/>
<linearGradient id="SVGID_1_" gradientUnits="userSpaceOnUse" x1="142.7184" y1="15.8302" x2="144.488" y2="452.858">
	<stop  offset="0" style="stop-color:#D0E9F4"/>
	<stop  offset="1" style="stop-color:#9DD2E8"/>
</linearGradient>
<path class="st1" d="M250.07,445.2H37.16c-3.1,0-5.6-2.51-5.6-5.6V35.39c0-3.1,2.51-5.6,5.6-5.6h212.92c3.1,0,5.6,2.51,5.6,5.6
	V439.6C255.68,442.69,253.17,445.2,250.07,445.2z"/>
<linearGradient id="SVGID_00000173845665324410676550000004388314079769730747_" gradientUnits="userSpaceOnUse" x1="49.3164" y1="23.2544" x2="68.8083" y2="23.2544">
	<stop  offset="0.3394" style="stop-color:#375A99"/>
	<stop  offset="1" style="stop-color:#23458C"/>
</linearGradient>
<path style="fill:url(#SVGID_00000173845665324410676550000004388314079769730747_);" d="M63.61,16.73h-9.1
	c-2.87,0-5.19,2.33-5.19,5.19v7.86h19.49v-7.86C68.81,19.05,66.48,16.73,63.61,16.73z"/>
<linearGradient id="SVGID_00000026884129261750418980000002335672445167952793_" gradientUnits="userSpaceOnUse" x1="255.6785" y1="285.3946" x2="268.7325" y2="285.3946">
	<stop  offset="0.3394" style="stop-color:#375A99"/>
	<stop  offset="1" style="stop-color:#23458C"/>
</linearGradient>
<path style="fill:url(#SVGID_00000026884129261750418980000002335672445167952793_);" d="M268.73,289.95v-9.1
	c0-2.87-2.33-5.19-5.19-5.19h-7.86v19.49h7.86C266.41,295.14,268.73,292.81,268.73,289.95z"/>
<linearGradient id="SVGID_00000116226466672550607720000013969961878668202642_" gradientUnits="userSpaceOnUse" x1="59.0625" y1="70.9407" x2="142.3045" y2="70.9407">
	<stop  offset="0" style="stop-color:#89A6D0"/>
	<stop  offset="1" style="stop-color:#4C6DB1"/>
</linearGradient>
<path style="fill:url(#SVGID_00000116226466672550607720000013969961878668202642_);" d="M132.56,16.73H80.43H59.06
	c5.38,0,9.75,4.36,9.75,9.75v3.31v71.29l36.75,24.08l36.75-24.08V29.78v-3.31C142.3,21.09,137.94,16.73,132.56,16.73z"/>
<linearGradient id="SVGID_00000023250283354052256940000012805776736833874306_" gradientUnits="userSpaceOnUse" x1="16.8899" y1="353.9137" x2="268.7325" y2="353.9137">
	<stop  offset="0" style="stop-color:#89A6D0"/>
	<stop  offset="1" style="stop-color:#4C6DB1"/>
</linearGradient>
<path style="fill:url(#SVGID_00000023250283354052256940000012805776736833874306_);" d="M258.99,295.14h-3.31H28.69
	c-6.52,0-11.8,5.28-11.8,11.8v103.69c0,6.52,5.28,11.8,11.8,11.8h226.99h3.31c5.38,0,9.75-4.36,9.75-9.75V295.14v-9.75
	C268.73,290.78,264.37,295.14,258.99,295.14z"/>
<g>
	<path class="st6" d="M85.41,39.74c-0.09-0.77-0.45-1.37-1.08-1.8c-0.63-0.43-1.43-0.64-2.39-0.64c-0.69,0-1.28,0.11-1.78,0.32
		s-0.89,0.51-1.16,0.88s-0.41,0.8-0.41,1.27c0,0.4,0.09,0.74,0.28,1.03c0.19,0.29,0.44,0.53,0.74,0.72
		c0.31,0.19,0.64,0.35,0.99,0.48s0.69,0.23,1.02,0.31l1.63,0.43c0.53,0.13,1.08,0.31,1.64,0.53c0.56,0.22,1.08,0.52,1.56,0.88
		c0.48,0.37,0.87,0.82,1.16,1.36c0.3,0.54,0.45,1.19,0.45,1.94c0,0.95-0.24,1.79-0.73,2.52c-0.49,0.74-1.19,1.32-2.12,1.74
		c-0.92,0.42-2.04,0.64-3.35,0.64c-1.25,0-2.34-0.2-3.25-0.6c-0.92-0.4-1.63-0.96-2.15-1.7c-0.52-0.73-0.8-1.6-0.86-2.61h2.53
		c0.05,0.6,0.25,1.11,0.59,1.51c0.35,0.4,0.79,0.7,1.33,0.89c0.54,0.19,1.14,0.29,1.79,0.29c0.71,0,1.35-0.11,1.91-0.34
		c0.56-0.23,1-0.54,1.32-0.95c0.32-0.41,0.48-0.88,0.48-1.43c0-0.5-0.14-0.9-0.42-1.22c-0.28-0.32-0.66-0.58-1.14-0.78
		c-0.48-0.21-1.01-0.39-1.61-0.55l-1.98-0.54c-1.34-0.37-2.4-0.9-3.18-1.61c-0.78-0.71-1.17-1.65-1.17-2.81
		c0-0.96,0.26-1.81,0.78-2.53c0.52-0.72,1.23-1.28,2.12-1.68s1.9-0.6,3.02-0.6c1.13,0,2.13,0.2,3,0.6s1.55,0.94,2.06,1.64
		c0.5,0.69,0.76,1.49,0.78,2.39H85.41z"/>
	<path class="st6" d="M90.26,37.52v-2.17h12.95v2.17h-5.22v14.56h-2.52V37.52H90.26z"/>
	<path class="st6" d="M106.07,52.08V35.35h10.49v2.17h-7.97v5.1h7.42v2.17h-7.42v5.12h8.07v2.17H106.07z"/>
	<path class="st6" d="M119.94,52.08V35.35h5.97c1.3,0,2.38,0.24,3.24,0.71s1.5,1.12,1.92,1.94c0.42,0.82,0.64,1.74,0.64,2.77
		c0,1.03-0.21,1.95-0.64,2.77s-1.07,1.47-1.93,1.94c-0.86,0.48-1.94,0.72-3.23,0.72h-4.1v-2.14h3.87c0.82,0,1.49-0.14,2-0.43
		c0.51-0.29,0.89-0.68,1.13-1.17c0.24-0.5,0.36-1.06,0.36-1.69c0-0.63-0.12-1.19-0.36-1.68c-0.24-0.49-0.62-0.87-1.13-1.15
		c-0.51-0.28-1.19-0.42-2.03-0.42h-3.17v14.57H119.94z"/>
</g>
<g>
	<path class="st6" d="M91.72,95.77c-3.18-0.01-5.92-0.75-8.23-2.2c-2.31-1.46-4.09-3.56-5.35-6.3c-1.25-2.74-1.87-6.04-1.86-9.87
		c0.01-3.85,0.64-7.12,1.89-9.81s3.02-4.73,5.33-6.13s5.05-2.1,8.23-2.1s5.92,0.7,8.23,2.11s4.09,3.45,5.35,6.14
		s1.87,5.95,1.86,9.79c0,3.86-0.63,7.16-1.88,9.91c-1.25,2.75-3.03,4.84-5.34,6.3C97.64,95.05,94.9,95.77,91.72,95.77z M91.72,88.05
		c1.64,0,2.99-0.86,4.04-2.57c1.05-1.71,1.57-4.41,1.56-8.09c0-2.4-0.24-4.37-0.72-5.89c-0.48-1.53-1.14-2.66-1.98-3.39
		c-0.84-0.73-1.81-1.1-2.9-1.1c-1.64,0-2.98,0.83-4.01,2.49c-1.04,1.66-1.57,4.29-1.59,7.89c-0.01,2.45,0.22,4.46,0.7,6.04
		c0.48,1.58,1.14,2.74,1.99,3.49C89.66,87.68,90.63,88.05,91.72,88.05z"/>
	<path class="st6" d="M128.76,59.83v34.99h-9.5V68.58h-0.21l-7.65,4.58v-8.06l8.61-5.26H128.76z"/>
</g>
<g>
	<g>
		<path class="st6" d="M49.56,334.7c-0.1-0.92-0.51-1.65-1.25-2.16s-1.68-0.77-2.84-0.77c-0.82,0-1.52,0.12-2.11,0.37
			c-0.59,0.25-1.04,0.58-1.35,1.01c-0.31,0.42-0.47,0.91-0.48,1.45c0,0.45,0.1,0.84,0.31,1.18c0.21,0.33,0.49,0.61,0.85,0.84
			c0.36,0.23,0.76,0.42,1.2,0.58s0.88,0.29,1.32,0.39l2.03,0.51c0.82,0.19,1.61,0.45,2.37,0.77s1.44,0.73,2.04,1.23
			c0.6,0.49,1.08,1.09,1.44,1.79c0.35,0.7,0.53,1.52,0.53,2.46c0,1.27-0.33,2.39-0.98,3.35c-0.65,0.96-1.59,1.72-2.81,2.26
			c-1.23,0.54-2.71,0.81-4.44,0.81c-1.69,0-3.15-0.26-4.39-0.78c-1.24-0.52-2.21-1.29-2.9-2.29s-1.07-2.22-1.13-3.67h3.87
			c0.06,0.76,0.29,1.38,0.7,1.89s0.94,0.88,1.6,1.12c0.66,0.25,1.4,0.37,2.22,0.37c0.85,0,1.6-0.13,2.25-0.39
			c0.65-0.26,1.15-0.62,1.52-1.08c0.37-0.46,0.55-1,0.56-1.63c-0.01-0.57-0.17-1.03-0.5-1.4c-0.33-0.37-0.78-0.68-1.36-0.93
			c-0.58-0.25-1.26-0.48-2.04-0.67l-2.47-0.64c-1.79-0.46-3.2-1.16-4.23-2.09c-1.03-0.94-1.55-2.18-1.55-3.73
			c0-1.28,0.35-2.4,1.04-3.36c0.7-0.96,1.64-1.71,2.84-2.24c1.2-0.53,2.56-0.8,4.08-0.8c1.54,0,2.89,0.27,4.05,0.8
			c1.16,0.53,2.07,1.27,2.74,2.21s1.01,2.03,1.03,3.25H49.56z"/>
		<path class="st6" d="M75.71,336.06h-3.96c-0.11-0.65-0.32-1.23-0.63-1.73c-0.3-0.5-0.68-0.93-1.13-1.29
			c-0.45-0.35-0.97-0.62-1.54-0.8c-0.58-0.18-1.2-0.27-1.86-0.27c-1.18,0-2.23,0.3-3.14,0.88c-0.91,0.59-1.62,1.45-2.14,2.59
			c-0.52,1.13-0.77,2.52-0.77,4.15c0,1.66,0.26,3.06,0.78,4.19s1.23,1.99,2.14,2.56c0.91,0.58,1.95,0.86,3.12,0.86
			c0.65,0,1.26-0.09,1.83-0.26c0.57-0.17,1.08-0.43,1.54-0.77c0.46-0.34,0.84-0.76,1.15-1.25c0.31-0.49,0.53-1.06,0.65-1.7
			l3.96,0.02c-0.15,1.03-0.47,2-0.96,2.9c-0.49,0.9-1.13,1.7-1.92,2.39c-0.79,0.69-1.72,1.23-2.78,1.61s-2.24,0.58-3.53,0.58
			c-1.91,0-3.61-0.44-5.11-1.32c-1.5-0.88-2.68-2.16-3.54-3.82c-0.86-1.67-1.29-3.67-1.29-6c0-2.34,0.43-4.34,1.3-6
			c0.87-1.66,2.05-2.94,3.55-3.82c1.5-0.88,3.19-1.32,5.09-1.32c1.21,0,2.33,0.17,3.37,0.51c1.04,0.34,1.96,0.84,2.78,1.49
			c0.81,0.65,1.48,1.45,2.01,2.39C75.2,333.78,75.55,334.85,75.71,336.06z"/>
		<path class="st6" d="M81.83,350.44h-4.2l7.64-21.7h4.85l7.65,21.7h-4.2l-5.8-17.25h-0.17L81.83,350.44z M81.97,341.93h11.44v3.16
			H81.97V341.93z"/>
		<path class="st6" d="M118.47,328.74v21.7h-3.5l-10.22-14.78h-0.18v14.78h-3.93v-21.7h3.52l10.21,14.79h0.19v-14.79H118.47z"/>
		<path class="st6" d="M131.43,327.72l-6.99,25.98h-3.36l6.99-25.98H131.43z"/>
		<path class="st6" d="M147.71,328.74h3.93v14.18c0,1.55-0.37,2.92-1.1,4.1c-0.73,1.18-1.76,2.1-3.08,2.76s-2.86,0.99-4.63,0.99
			c-1.77,0-3.32-0.33-4.64-0.99s-2.34-1.58-3.07-2.76c-0.73-1.18-1.09-2.55-1.09-4.1v-14.18h3.93v13.85c0,0.9,0.2,1.71,0.6,2.42
			c0.4,0.71,0.96,1.26,1.69,1.66c0.73,0.4,1.59,0.6,2.58,0.6s1.86-0.2,2.59-0.6s1.29-0.95,1.69-1.66c0.4-0.71,0.59-1.51,0.59-2.42
			V328.74z"/>
		<path class="st6" d="M155.92,350.44v-21.7h8.14c1.67,0,3.07,0.31,4.2,0.93c1.13,0.62,1.99,1.47,2.57,2.56
			c0.58,1.08,0.87,2.31,0.87,3.69c0,1.39-0.29,2.63-0.88,3.71s-1.45,1.93-2.6,2.55c-1.14,0.62-2.55,0.93-4.23,0.93h-5.39v-3.23h4.86
			c0.97,0,1.77-0.17,2.39-0.51c0.62-0.34,1.08-0.81,1.38-1.4c0.3-0.59,0.45-1.27,0.45-2.04s-0.15-1.45-0.45-2.03
			s-0.76-1.04-1.39-1.37c-0.63-0.33-1.43-0.49-2.41-0.49h-3.6v18.41H155.92z"/>
		<path class="st6" d="M175.12,350.44v-21.7h3.93v18.4h9.56v3.29H175.12z"/>
		<path class="st6" d="M210.55,339.59c0,2.34-0.44,4.34-1.31,6c-0.87,1.66-2.06,2.94-3.56,3.82c-1.5,0.88-3.2,1.32-5.1,1.32
			c-1.9,0-3.6-0.44-5.1-1.33c-1.5-0.89-2.69-2.16-3.56-3.82c-0.87-1.66-1.31-3.66-1.31-5.99c0-2.34,0.44-4.34,1.31-6
			c0.87-1.66,2.06-2.94,3.56-3.82c1.5-0.88,3.2-1.32,5.1-1.32c1.9,0,3.6,0.44,5.1,1.32c1.5,0.88,2.69,2.16,3.56,3.82
			C210.11,335.25,210.55,337.25,210.55,339.59z M206.59,339.59c0-1.65-0.26-3.04-0.77-4.17c-0.51-1.13-1.22-1.99-2.12-2.57
			c-0.9-0.58-1.95-0.87-3.13-0.87c-1.18,0-2.22,0.29-3.12,0.87c-0.9,0.58-1.61,1.44-2.12,2.57s-0.77,2.52-0.77,4.17
			c0,1.65,0.26,3.04,0.77,4.17c0.51,1.13,1.22,1.99,2.12,2.57c0.9,0.58,1.95,0.87,3.12,0.87c1.18,0,2.22-0.29,3.13-0.87
			c0.9-0.58,1.61-1.44,2.12-2.57C206.34,342.62,206.59,341.23,206.59,339.59z"/>
		<path class="st6" d="M215.91,350.44h-4.2l7.64-21.7h4.85l7.65,21.7h-4.2l-5.8-17.25h-0.17L215.91,350.44z M216.05,341.93h11.44
			v3.16h-11.44V341.93z"/>
		<path class="st6" d="M242.07,350.44h-7.35v-21.7h7.5c2.15,0,4.01,0.43,5.56,1.3c1.55,0.87,2.74,2.11,3.58,3.72
			c0.83,1.62,1.25,3.55,1.25,5.81c0,2.26-0.42,4.2-1.26,5.83s-2.04,2.87-3.61,3.74C246.16,350,244.27,350.44,242.07,350.44z
			 M238.64,347.04h3.23c1.51,0,2.77-0.28,3.78-0.83c1.01-0.55,1.77-1.38,2.28-2.49c0.51-1.11,0.76-2.49,0.76-4.15
			s-0.25-3.04-0.76-4.14c-0.51-1.1-1.26-1.92-2.25-2.47s-2.22-0.82-3.69-0.82h-3.35V347.04z"/>
		<path class="st6" d="M73.79,364.54h4.44l5.31,9.6h0.21l5.31-9.6h4.44l-7.89,13.6v8.09h-3.92v-8.09L73.79,364.54z"/>
		<path class="st6" d="M114.47,375.39c0,2.34-0.44,4.34-1.31,6c-0.87,1.66-2.06,2.94-3.56,3.82c-1.5,0.88-3.2,1.32-5.1,1.32
			c-1.9,0-3.6-0.44-5.1-1.33c-1.5-0.89-2.69-2.16-3.56-3.82c-0.87-1.66-1.31-3.66-1.31-5.99c0-2.34,0.44-4.34,1.31-6
			c0.87-1.66,2.06-2.94,3.56-3.82c1.5-0.88,3.2-1.32,5.1-1.32c1.9,0,3.6,0.44,5.1,1.32c1.5,0.88,2.69,2.16,3.56,3.82
			C114.03,371.05,114.47,373.05,114.47,375.39z M110.52,375.39c0-1.65-0.26-3.04-0.77-4.17c-0.51-1.13-1.22-1.99-2.12-2.57
			c-0.9-0.58-1.95-0.87-3.13-0.87c-1.18,0-2.22,0.29-3.12,0.87c-0.9,0.58-1.61,1.44-2.12,2.57s-0.77,2.52-0.77,4.17
			c0,1.65,0.26,3.04,0.77,4.17c0.51,1.13,1.22,1.99,2.12,2.57c0.9,0.58,1.95,0.87,3.12,0.87c1.18,0,2.22-0.29,3.13-0.87
			c0.9-0.58,1.61-1.44,2.12-2.57C110.26,378.43,110.52,377.04,110.52,375.39z"/>
		<path class="st6" d="M131.88,364.54h3.93v14.18c0,1.55-0.37,2.92-1.1,4.1c-0.73,1.18-1.76,2.1-3.08,2.76s-2.86,0.99-4.63,0.99
			c-1.77,0-3.32-0.33-4.64-0.99s-2.34-1.58-3.07-2.76c-0.73-1.18-1.09-2.55-1.09-4.1v-14.18h3.93v13.85c0,0.9,0.2,1.71,0.6,2.42
			c0.4,0.71,0.96,1.26,1.69,1.66c0.73,0.4,1.59,0.6,2.58,0.6s1.86-0.2,2.59-0.6s1.29-0.95,1.69-1.66c0.4-0.71,0.59-1.51,0.59-2.42
			V364.54z"/>
		<path class="st6" d="M140.09,386.24v-21.7h8.14c1.67,0,3.07,0.29,4.2,0.87c1.13,0.58,1.99,1.39,2.57,2.43
			c0.58,1.04,0.87,2.26,0.87,3.64c0,1.39-0.29,2.6-0.88,3.62c-0.59,1.02-1.46,1.81-2.6,2.36c-1.14,0.55-2.55,0.83-4.22,0.83h-5.8
			v-3.26h5.27c0.97,0,1.77-0.14,2.39-0.41s1.08-0.67,1.38-1.2c0.3-0.53,0.45-1.17,0.45-1.94s-0.15-1.43-0.46-1.98
			s-0.77-0.96-1.39-1.25c-0.62-0.29-1.42-0.43-2.41-0.43h-3.6v18.41H140.09z M151.29,376.41l5.37,9.83h-4.39l-5.28-9.83H151.29z"/>
		<path class="st6" d="M184.73,364.54v21.7h-3.5l-10.22-14.78h-0.18v14.78h-3.93v-21.7h3.52l10.21,14.79h0.19v-14.79H184.73z"/>
		<path class="st6" d="M192.93,364.54v21.7H189v-21.7H192.93z"/>
		<path class="st6" d="M204.55,386.24h-7.35v-21.7h7.5c2.15,0,4.01,0.43,5.56,1.3c1.55,0.87,2.74,2.11,3.58,3.72
			c0.83,1.62,1.25,3.55,1.25,5.81c0,2.26-0.42,4.2-1.26,5.83s-2.04,2.87-3.61,3.74C208.65,385.8,206.76,386.24,204.55,386.24z
			 M201.13,382.84h3.23c1.51,0,2.77-0.28,3.78-0.83c1.01-0.55,1.77-1.38,2.28-2.49c0.51-1.11,0.76-2.49,0.76-4.15
			s-0.25-3.04-0.76-4.14c-0.51-1.1-1.26-1.92-2.25-2.47s-2.22-0.82-3.69-0.82h-3.35V382.84z"/>
	</g>
</g>
<linearGradient id="SVGID_00000160186606145897521870000016518757247454183342_" gradientUnits="userSpaceOnUse" x1="462.1597" y1="29.253" x2="462.1597" y2="452.6833">
	<stop  offset="7.011220e-03" style="stop-color:#FFE39A"/>
	<stop  offset="1" style="stop-color:#FFB900"/>
</linearGradient>
<path style="fill:url(#SVGID_00000160186606145897521870000016518757247454183342_);" d="M568.62,445.2H355.7
	c-3.1,0-5.6-2.51-5.6-5.6V35.39c0-3.1,2.51-5.6,5.6-5.6h212.92c3.1,0,5.6,2.51,5.6,5.6V439.6
	C574.22,442.69,571.71,445.2,568.62,445.2z"/>
<linearGradient id="SVGID_00000088851157566548939910000007958027887520744333_" gradientUnits="userSpaceOnUse" x1="367.8602" y1="23.2544" x2="387.3519" y2="23.2544">
	<stop  offset="0" style="stop-color:#CC6B06"/>
	<stop  offset="1" style="stop-color:#B25B00"/>
</linearGradient>
<path style="fill:url(#SVGID_00000088851157566548939910000007958027887520744333_);" d="M377.61,16.73L377.61,16.73
	c-5.38,0-9.75,4.36-9.75,9.75v3.31h19.49v-3.31C387.35,21.09,382.99,16.73,377.61,16.73z"/>
<linearGradient id="SVGID_00000173842910686668814150000008813845834940163223_" gradientUnits="userSpaceOnUse" x1="574.2222" y1="285.3946" x2="587.2762" y2="285.3946">
	<stop  offset="0" style="stop-color:#CC6B06"/>
	<stop  offset="1" style="stop-color:#B25B00"/>
</linearGradient>
<path style="fill:url(#SVGID_00000173842910686668814150000008813845834940163223_);" d="M587.28,289.95v-9.1
	c0-2.87-2.33-5.19-5.19-5.19h-7.86v19.49h7.86C584.95,295.14,587.28,292.81,587.28,289.95z"/>
<linearGradient id="SVGID_00000124860268505321301620000007174772439441393085_" gradientUnits="userSpaceOnUse" x1="377.606" y1="70.9407" x2="460.8483" y2="70.9407">
	<stop  offset="0" style="stop-color:#F8A34A"/>
	<stop  offset="1" style="stop-color:#DE7200"/>
</linearGradient>
<path style="fill:url(#SVGID_00000124860268505321301620000007174772439441393085_);" d="M451.1,16.73h-52.13h-21.37
	c5.38,0,9.75,4.36,9.75,9.75v3.31v71.29l36.75,24.08l36.75-24.08V29.78v-3.31C460.85,21.09,456.48,16.73,451.1,16.73z"/>
<linearGradient id="SVGID_00000062914584463935419110000003719675155746111383_" gradientUnits="userSpaceOnUse" x1="335.4336" y1="353.9137" x2="587.2762" y2="353.9137">
	<stop  offset="0" style="stop-color:#F8A34A"/>
	<stop  offset="1" style="stop-color:#DE7200"/>
</linearGradient>
<path style="fill:url(#SVGID_00000062914584463935419110000003719675155746111383_);" d="M577.53,295.14h-3.31H347.23
	c-6.52,0-11.8,5.28-11.8,11.8v103.69c0,6.52,5.28,11.8,11.8,11.8h226.99h3.31c5.38,0,9.75-4.36,9.75-9.75V295.14v-9.75
	C587.28,290.78,582.91,295.14,577.53,295.14z"/>
<g>
	<path class="st6" d="M403.95,39.74c-0.09-0.77-0.45-1.37-1.08-1.8c-0.63-0.43-1.43-0.64-2.39-0.64c-0.69,0-1.28,0.11-1.78,0.32
		s-0.89,0.51-1.16,0.88s-0.41,0.8-0.41,1.27c0,0.4,0.09,0.74,0.28,1.03c0.19,0.29,0.44,0.53,0.74,0.72
		c0.31,0.19,0.64,0.35,0.99,0.48s0.69,0.23,1.02,0.31l1.63,0.43c0.53,0.13,1.08,0.31,1.64,0.53c0.56,0.22,1.08,0.52,1.56,0.88
		c0.48,0.37,0.87,0.82,1.16,1.36c0.3,0.54,0.45,1.19,0.45,1.94c0,0.95-0.24,1.79-0.73,2.52c-0.49,0.74-1.19,1.32-2.12,1.74
		c-0.92,0.42-2.04,0.64-3.35,0.64c-1.25,0-2.34-0.2-3.25-0.6c-0.92-0.4-1.63-0.96-2.15-1.7c-0.52-0.73-0.8-1.6-0.86-2.61h2.53
		c0.05,0.6,0.25,1.11,0.59,1.51c0.35,0.4,0.79,0.7,1.33,0.89c0.54,0.19,1.14,0.29,1.79,0.29c0.71,0,1.35-0.11,1.91-0.34
		c0.56-0.23,1-0.54,1.32-0.95c0.32-0.41,0.48-0.88,0.48-1.43c0-0.5-0.14-0.9-0.42-1.22c-0.28-0.32-0.66-0.58-1.14-0.78
		c-0.48-0.21-1.01-0.39-1.61-0.55l-1.98-0.54c-1.34-0.37-2.4-0.9-3.18-1.61c-0.78-0.71-1.17-1.65-1.17-2.81
		c0-0.96,0.26-1.81,0.78-2.53c0.52-0.72,1.23-1.28,2.12-1.68s1.9-0.6,3.02-0.6c1.13,0,2.13,0.2,3,0.6s1.55,0.94,2.06,1.64
		c0.5,0.69,0.76,1.49,0.78,2.39H403.95z"/>
	<path class="st6" d="M408.8,37.52v-2.17h12.95v2.17h-5.22v14.56h-2.52V37.52H408.8z"/>
	<path class="st6" d="M424.61,52.08V35.35h10.49v2.17h-7.97v5.1h7.42v2.17h-7.42v5.12h8.07v2.17H424.61z"/>
	<path class="st6" d="M438.49,52.08V35.35h5.97c1.3,0,2.38,0.24,3.24,0.71s1.5,1.12,1.92,1.94c0.42,0.82,0.64,1.74,0.64,2.77
		c0,1.03-0.21,1.95-0.64,2.77s-1.07,1.47-1.93,1.94c-0.86,0.48-1.94,0.72-3.23,0.72h-4.1v-2.14h3.87c0.82,0,1.49-0.14,2-0.43
		c0.51-0.29,0.89-0.68,1.13-1.17c0.24-0.5,0.36-1.06,0.36-1.69c0-0.63-0.12-1.19-0.36-1.68c-0.24-0.49-0.62-0.87-1.13-1.15
		c-0.51-0.28-1.19-0.42-2.03-0.42h-3.17v14.57H438.49z"/>
</g>
<g>
	<path class="st6" d="M406.54,95.77c-3.18-0.01-5.92-0.75-8.23-2.2c-2.31-1.46-4.09-3.56-5.35-6.3c-1.25-2.74-1.87-6.04-1.86-9.87
		c0.01-3.85,0.64-7.12,1.89-9.81s3.02-4.73,5.33-6.13s5.05-2.1,8.23-2.1s5.92,0.7,8.23,2.11s4.09,3.45,5.35,6.14
		s1.87,5.95,1.86,9.79c0,3.86-0.63,7.16-1.88,9.91c-1.25,2.75-3.03,4.84-5.34,6.3C412.46,95.05,409.72,95.77,406.54,95.77z
		 M406.54,88.05c1.64,0,2.99-0.86,4.04-2.57c1.05-1.71,1.57-4.41,1.56-8.09c0-2.4-0.24-4.37-0.72-5.89
		c-0.48-1.53-1.14-2.66-1.98-3.39c-0.84-0.73-1.81-1.1-2.9-1.1c-1.64,0-2.98,0.83-4.01,2.49c-1.04,1.66-1.57,4.29-1.59,7.89
		c-0.01,2.45,0.22,4.46,0.7,6.04c0.48,1.58,1.14,2.74,1.99,3.49C404.47,87.68,405.45,88.05,406.54,88.05z"/>
	<path class="st6" d="M426.42,94.82v-6.83l13.05-10.8c0.87-0.72,1.61-1.39,2.23-2.02c0.62-0.63,1.1-1.28,1.44-1.96
		c0.34-0.67,0.5-1.42,0.5-2.24c0-0.9-0.19-1.67-0.57-2.31c-0.38-0.64-0.91-1.13-1.58-1.48c-0.67-0.35-1.45-0.52-2.32-0.52
		c-0.88,0-1.65,0.18-2.31,0.53c-0.67,0.35-1.18,0.87-1.55,1.55c-0.36,0.68-0.55,1.52-0.55,2.49h-9.02c0-2.46,0.55-4.58,1.66-6.35
		c1.1-1.78,2.67-3.14,4.68-4.1c2.02-0.96,4.38-1.44,7.09-1.44c2.8,0,5.23,0.45,7.29,1.34c2.06,0.89,3.64,2.15,4.77,3.77
		c1.12,1.62,1.68,3.51,1.68,5.69c0,1.34-0.28,2.68-0.84,4.01c-0.56,1.33-1.56,2.79-3.01,4.4c-1.45,1.61-3.5,3.52-6.17,5.74
		l-3.28,2.73v0.21h13.67v7.59H426.42z"/>
</g>
<linearGradient id="SVGID_00000046308387285316057930000000305176996808495783_" gradientUnits="userSpaceOnUse" x1="780.7033" y1="26.304" x2="780.7033" y2="452.6796">
	<stop  offset="0" style="stop-color:#E6F0AC"/>
	<stop  offset="1" style="stop-color:#B7D515"/>
</linearGradient>
<path style="fill:url(#SVGID_00000046308387285316057930000000305176996808495783_);" d="M887.16,445.2H674.25
	c-3.1,0-5.6-2.51-5.6-5.6V35.39c0-3.1,2.51-5.6,5.6-5.6h212.92c3.1,0,5.6,2.51,5.6,5.6V439.6
	C892.77,442.69,890.26,445.2,887.16,445.2z"/>
<linearGradient id="SVGID_00000171704257693097955560000000176706728090946210_" gradientUnits="userSpaceOnUse" x1="686.4039" y1="23.2544" x2="705.8956" y2="23.2544">
	<stop  offset="0" style="stop-color:#72A122"/>
	<stop  offset="1" style="stop-color:#4F8A01"/>
</linearGradient>
<path style="fill:url(#SVGID_00000171704257693097955560000000176706728090946210_);" d="M696.15,16.73L696.15,16.73
	c-5.38,0-9.75,4.36-9.75,9.75v3.31h19.49v-3.31C705.9,21.09,701.53,16.73,696.15,16.73z"/>
<linearGradient id="SVGID_00000045586248077626615690000016949882817086279070_" gradientUnits="userSpaceOnUse" x1="892.7657" y1="285.3946" x2="905.8199" y2="285.3946">
	<stop  offset="0" style="stop-color:#72A122"/>
	<stop  offset="1" style="stop-color:#4F8A01"/>
</linearGradient>
<path style="fill:url(#SVGID_00000045586248077626615690000016949882817086279070_);" d="M905.82,289.95v-9.1
	c0-2.87-2.33-5.19-5.19-5.19h-7.86v19.49h7.86C903.49,295.14,905.82,292.81,905.82,289.95z"/>
<linearGradient id="SVGID_00000181799677515072134280000016265075376955343806_" gradientUnits="userSpaceOnUse" x1="696.1497" y1="70.9407" x2="779.392" y2="70.9407">
	<stop  offset="0" style="stop-color:#9BC750"/>
	<stop  offset="1" style="stop-color:#74B023"/>
</linearGradient>
<path style="fill:url(#SVGID_00000181799677515072134280000016265075376955343806_);" d="M769.65,16.73h-52.13h-21.37
	c5.38,0,9.75,4.36,9.75,9.75v3.31v71.29l36.75,24.08l36.75-24.08V29.78v-3.31C779.39,21.09,775.03,16.73,769.65,16.73z"/>
<linearGradient id="SVGID_00000044161928460141214900000015499418107261935790_" gradientUnits="userSpaceOnUse" x1="653.9773" y1="353.9137" x2="905.8199" y2="353.9137">
	<stop  offset="0" style="stop-color:#9BC750"/>
	<stop  offset="1" style="stop-color:#74B023"/>
</linearGradient>
<path style="fill:url(#SVGID_00000044161928460141214900000015499418107261935790_);" d="M896.07,295.14h-3.31H665.78
	c-6.52,0-11.8,5.28-11.8,11.8v103.69c0,6.52,5.28,11.8,11.8,11.8h226.99h3.31c5.38,0,9.75-4.36,9.75-9.75V295.14v-9.75
	C905.82,290.78,901.46,295.14,896.07,295.14z"/>
<g>
	<path class="st6" d="M722.95,39.74c-0.09-0.77-0.45-1.37-1.08-1.8c-0.63-0.43-1.43-0.64-2.39-0.64c-0.69,0-1.28,0.11-1.78,0.32
		s-0.89,0.51-1.16,0.88s-0.41,0.8-0.41,1.27c0,0.4,0.09,0.74,0.28,1.03c0.19,0.29,0.44,0.53,0.74,0.72
		c0.31,0.19,0.64,0.35,0.99,0.48s0.69,0.23,1.02,0.31l1.63,0.43c0.53,0.13,1.08,0.31,1.64,0.53c0.56,0.22,1.08,0.52,1.56,0.88
		c0.48,0.37,0.87,0.82,1.16,1.36c0.3,0.54,0.45,1.19,0.45,1.94c0,0.95-0.24,1.79-0.73,2.52c-0.49,0.74-1.19,1.32-2.12,1.74
		c-0.92,0.42-2.04,0.64-3.35,0.64c-1.25,0-2.34-0.2-3.25-0.6c-0.92-0.4-1.63-0.96-2.15-1.7c-0.52-0.73-0.8-1.6-0.86-2.61h2.53
		c0.05,0.6,0.25,1.11,0.59,1.51c0.35,0.4,0.79,0.7,1.33,0.89c0.54,0.19,1.14,0.29,1.79,0.29c0.71,0,1.35-0.11,1.91-0.34
		c0.56-0.23,1-0.54,1.32-0.95c0.32-0.41,0.48-0.88,0.48-1.43c0-0.5-0.14-0.9-0.42-1.22c-0.28-0.32-0.66-0.58-1.14-0.78
		c-0.48-0.21-1.01-0.39-1.61-0.55l-1.98-0.54c-1.34-0.37-2.4-0.9-3.18-1.61c-0.78-0.71-1.17-1.65-1.17-2.81
		c0-0.96,0.26-1.81,0.78-2.53c0.52-0.72,1.23-1.28,2.12-1.68s1.9-0.6,3.02-0.6c1.13,0,2.13,0.2,3,0.6s1.55,0.94,2.06,1.64
		c0.5,0.69,0.76,1.49,0.78,2.39H722.95z"/>
	<path class="st6" d="M727.81,37.52v-2.17h12.95v2.17h-5.22v14.56h-2.52V37.52H727.81z"/>
	<path class="st6" d="M743.61,52.08V35.35h10.49v2.17h-7.97v5.1h7.42v2.17h-7.42v5.12h8.07v2.17H743.61z"/>
	<path class="st6" d="M757.49,52.08V35.35h5.97c1.3,0,2.38,0.24,3.24,0.71s1.5,1.12,1.92,1.94c0.42,0.82,0.64,1.74,0.64,2.77
		c0,1.03-0.21,1.95-0.64,2.77s-1.07,1.47-1.93,1.94c-0.86,0.48-1.94,0.72-3.23,0.72h-4.1v-2.14h3.87c0.82,0,1.49-0.14,2-0.43
		c0.51-0.29,0.89-0.68,1.13-1.17c0.24-0.5,0.36-1.06,0.36-1.69c0-0.63-0.12-1.19-0.36-1.68c-0.24-0.49-0.62-0.87-1.13-1.15
		c-0.51-0.28-1.19-0.42-2.03-0.42h-3.17v14.57H757.49z"/>
</g>
<g>
	<path class="st6" d="M725.42,95.77c-3.18-0.01-5.92-0.75-8.23-2.2c-2.31-1.46-4.09-3.56-5.35-6.3c-1.25-2.74-1.87-6.04-1.86-9.87
		c0.01-3.85,0.64-7.12,1.89-9.81s3.02-4.73,5.33-6.13s5.05-2.1,8.23-2.1s5.92,0.7,8.23,2.11s4.09,3.45,5.35,6.14
		s1.87,5.95,1.86,9.79c0,3.86-0.63,7.16-1.88,9.91c-1.25,2.75-3.03,4.84-5.34,6.3C731.33,95.05,728.59,95.77,725.42,95.77z
		 M725.42,88.05c1.64,0,2.99-0.86,4.04-2.57c1.05-1.71,1.57-4.41,1.56-8.09c0-2.4-0.24-4.37-0.72-5.89
		c-0.48-1.53-1.14-2.66-1.98-3.39c-0.84-0.73-1.81-1.1-2.9-1.1c-1.64,0-2.98,0.83-4.01,2.49c-1.04,1.66-1.57,4.29-1.59,7.89
		c-0.01,2.45,0.22,4.46,0.7,6.04c0.48,1.58,1.14,2.74,1.99,3.49C723.35,87.68,724.32,88.05,725.42,88.05z"/>
	<path class="st6" d="M758.97,95.29c-2.76,0-5.2-0.48-7.34-1.43c-2.14-0.95-3.81-2.26-5.03-3.94c-1.22-1.67-1.83-3.6-1.84-5.77h9.57
		c0.01,0.67,0.22,1.27,0.62,1.8c0.4,0.53,0.96,0.94,1.67,1.24c0.71,0.3,1.51,0.44,2.43,0.44c0.88,0,1.65-0.16,2.32-0.47
		c0.67-0.31,1.2-0.75,1.57-1.31c0.38-0.56,0.56-1.2,0.55-1.91c0.01-0.71-0.2-1.33-0.64-1.88c-0.44-0.55-1.05-0.97-1.84-1.28
		c-0.79-0.31-1.69-0.46-2.72-0.46h-3.55v-6.56h3.55c0.95,0,1.78-0.15,2.5-0.46s1.29-0.73,1.69-1.28c0.4-0.55,0.6-1.17,0.59-1.88
		c0.01-0.68-0.15-1.29-0.5-1.81c-0.34-0.52-0.82-0.93-1.43-1.23c-0.61-0.3-1.31-0.44-2.11-0.44c-0.87,0-1.64,0.15-2.31,0.46
		c-0.68,0.31-1.21,0.73-1.6,1.28c-0.39,0.55-0.59,1.17-0.6,1.88h-9.09c0.01-2.14,0.6-4.03,1.77-5.67c1.17-1.64,2.77-2.93,4.81-3.86
		c2.04-0.93,4.38-1.4,7.02-1.4c2.59,0,4.87,0.44,6.86,1.32c1.99,0.88,3.54,2.08,4.66,3.61c1.12,1.53,1.68,3.28,1.67,5.25
		c0.02,1.96-0.65,3.56-2.01,4.82c-1.36,1.25-3.08,1.99-5.17,2.22v0.27c2.82,0.31,4.95,1.17,6.37,2.59s2.12,3.2,2.1,5.34
		c0.01,2.05-0.6,3.87-1.84,5.45c-1.24,1.58-2.95,2.82-5.14,3.72C764.35,94.84,761.83,95.29,758.97,95.29z"/>
</g>
<linearGradient id="SVGID_00000090979983288622703160000010454262209704150691_" gradientUnits="userSpaceOnUse" x1="1098.0778" y1="24.6853" x2="1100.4368" y2="454.0569">
	<stop  offset="0" style="stop-color:#FFC1C6"/>
	<stop  offset="1" style="stop-color:#FF6570"/>
</linearGradient>
<path style="fill:url(#SVGID_00000090979983288622703160000010454262209704150691_);" d="M1205.7,445.2H992.79
	c-3.1,0-5.6-2.51-5.6-5.6V35.39c0-3.1,2.51-5.6,5.6-5.6h212.92c3.1,0,5.6,2.51,5.6,5.6V439.6
	C1211.31,442.69,1208.8,445.2,1205.7,445.2z"/>
<linearGradient id="SVGID_00000068667233728872044370000015219352831323209365_" gradientUnits="userSpaceOnUse" x1="1004.9476" y1="23.2544" x2="1024.4393" y2="23.2544">
	<stop  offset="0" style="stop-color:#D16270"/>
	<stop  offset="1" style="stop-color:#C90028"/>
</linearGradient>
<path style="fill:url(#SVGID_00000068667233728872044370000015219352831323209365_);" d="M1014.69,16.73L1014.69,16.73
	c-5.38,0-9.75,4.36-9.75,9.75v3.31h19.49v-3.31C1024.44,21.09,1020.08,16.73,1014.69,16.73z"/>
<linearGradient id="SVGID_00000125571278410388400960000007894709116219841668_" gradientUnits="userSpaceOnUse" x1="1211.3094" y1="285.3946" x2="1224.3636" y2="285.3946">
	<stop  offset="0" style="stop-color:#D16270"/>
	<stop  offset="1" style="stop-color:#C90028"/>
</linearGradient>
<path style="fill:url(#SVGID_00000125571278410388400960000007894709116219841668_);" d="M1224.36,289.95v-9.1
	c0-2.87-2.33-5.19-5.19-5.19h-7.86v19.49h7.86C1222.04,295.14,1224.36,292.81,1224.36,289.95z"/>
<linearGradient id="SVGID_00000119082687770802184210000015645168615455468715_" gradientUnits="userSpaceOnUse" x1="1014.6935" y1="70.9407" x2="1097.9355" y2="70.9407">
	<stop  offset="0" style="stop-color:#FA4E6F"/>
	<stop  offset="1" style="stop-color:#FA0042"/>
</linearGradient>
<path style="fill:url(#SVGID_00000119082687770802184210000015645168615455468715_);" d="M1088.19,16.73h-52.13h-21.37
	c5.38,0,9.75,4.36,9.75,9.75v3.31v71.29l36.75,24.08l36.75-24.08V29.78v-3.31C1097.94,21.09,1093.57,16.73,1088.19,16.73z"/>
<linearGradient id="SVGID_00000141423040088431218260000003999189544202920126_" gradientUnits="userSpaceOnUse" x1="972.5211" y1="353.9137" x2="1224.3635" y2="353.9137">
	<stop  offset="0" style="stop-color:#FA4E6F"/>
	<stop  offset="1" style="stop-color:#FA0042"/>
</linearGradient>
<path style="fill:url(#SVGID_00000141423040088431218260000003999189544202920126_);" d="M1214.62,295.14h-3.31H984.32
	c-6.52,0-11.8,5.28-11.8,11.8v103.69c0,6.52,5.28,11.8,11.8,11.8h226.99h3.31c5.38,0,9.75-4.36,9.75-9.75V295.14v-9.75
	C1224.36,290.78,1220,295.14,1214.62,295.14z"/>
<g>
	<path class="st6" d="M1043.33,39.74c-0.09-0.77-0.45-1.37-1.08-1.8c-0.63-0.43-1.43-0.64-2.39-0.64c-0.69,0-1.28,0.11-1.78,0.32
		s-0.89,0.51-1.16,0.88s-0.41,0.8-0.41,1.27c0,0.4,0.09,0.74,0.28,1.03c0.19,0.29,0.44,0.53,0.74,0.72
		c0.31,0.19,0.64,0.35,0.99,0.48s0.69,0.23,1.02,0.31l1.63,0.43c0.53,0.13,1.08,0.31,1.64,0.53c0.56,0.22,1.08,0.52,1.56,0.88
		c0.48,0.37,0.87,0.82,1.16,1.36c0.3,0.54,0.45,1.19,0.45,1.94c0,0.95-0.24,1.79-0.73,2.52c-0.49,0.74-1.19,1.32-2.12,1.74
		c-0.92,0.42-2.04,0.64-3.35,0.64c-1.25,0-2.34-0.2-3.25-0.6c-0.92-0.4-1.63-0.96-2.15-1.7c-0.52-0.73-0.8-1.6-0.86-2.61h2.53
		c0.05,0.6,0.25,1.11,0.59,1.51c0.35,0.4,0.79,0.7,1.33,0.89c0.54,0.19,1.14,0.29,1.79,0.29c0.71,0,1.35-0.11,1.91-0.34
		c0.56-0.23,1-0.54,1.32-0.95c0.32-0.41,0.48-0.88,0.48-1.43c0-0.5-0.14-0.9-0.42-1.22c-0.28-0.32-0.66-0.58-1.14-0.78
		c-0.48-0.21-1.01-0.39-1.61-0.55l-1.98-0.54c-1.34-0.37-2.4-0.9-3.18-1.61c-0.78-0.71-1.17-1.65-1.17-2.81
		c0-0.96,0.26-1.81,0.78-2.53c0.52-0.72,1.23-1.28,2.12-1.68s1.9-0.6,3.02-0.6c1.13,0,2.13,0.2,3,0.6s1.55,0.94,2.06,1.64
		c0.5,0.69,0.76,1.49,0.78,2.39H1043.33z"/>
	<path class="st6" d="M1048.19,37.52v-2.17h12.95v2.17h-5.22v14.56h-2.52V37.52H1048.19z"/>
	<path class="st6" d="M1063.99,52.08V35.35h10.49v2.17h-7.97v5.1h7.42v2.17h-7.42v5.12h8.07v2.17H1063.99z"/>
	<path class="st6" d="M1077.87,52.08V35.35h5.97c1.3,0,2.38,0.24,3.24,0.71s1.5,1.12,1.92,1.94c0.42,0.82,0.64,1.74,0.64,2.77
		c0,1.03-0.21,1.95-0.64,2.77s-1.07,1.47-1.93,1.94c-0.86,0.48-1.94,0.72-3.23,0.72h-4.1v-2.14h3.87c0.82,0,1.49-0.14,2-0.43
		c0.51-0.29,0.89-0.68,1.13-1.17c0.24-0.5,0.36-1.06,0.36-1.69c0-0.63-0.12-1.19-0.36-1.68c-0.24-0.49-0.62-0.87-1.13-1.15
		c-0.51-0.28-1.19-0.42-2.03-0.42h-3.17v14.57H1077.87z"/>
</g>
<g>
	<path class="st6" d="M1044.04,95.77c-3.18-0.01-5.92-0.75-8.23-2.2c-2.31-1.46-4.09-3.56-5.35-6.3c-1.25-2.74-1.87-6.04-1.86-9.87
		c0.01-3.85,0.64-7.12,1.89-9.81s3.02-4.73,5.33-6.13s5.05-2.1,8.23-2.1s5.92,0.7,8.23,2.11s4.09,3.45,5.35,6.14
		s1.87,5.95,1.86,9.79c0,3.86-0.63,7.16-1.88,9.91c-1.25,2.75-3.03,4.84-5.34,6.3C1049.96,95.05,1047.21,95.77,1044.04,95.77z
		 M1044.04,88.05c1.64,0,2.99-0.86,4.04-2.57c1.05-1.71,1.57-4.41,1.56-8.09c0-2.4-0.24-4.37-0.72-5.89
		c-0.48-1.53-1.14-2.66-1.98-3.39c-0.84-0.73-1.81-1.1-2.9-1.1c-1.64,0-2.98,0.83-4.01,2.49c-1.04,1.66-1.57,4.29-1.59,7.89
		c-0.01,2.45,0.22,4.46,0.7,6.04c0.48,1.58,1.14,2.74,1.99,3.49C1041.97,87.68,1042.94,88.05,1044.04,88.05z"/>
	<path class="st6" d="M1063.58,89.35v-7.38l14.08-22.14h6.7v9.84h-3.83l-7.59,12.03v0.27h20.77v7.38H1063.58z M1080.6,94.82v-7.72
		l0.21-3.21V59.83h8.88v34.99H1080.6z"/>
</g>
<linearGradient id="SVGID_00000003085012756340960500000011866663005744019883_" gradientUnits="userSpaceOnUse" x1="131.9065" y1="500.4503" x2="155.3253" y2="500.4503">
	<stop  offset="0" style="stop-color:#89A6D0"/>
	<stop  offset="1" style="stop-color:#4C6DB1"/>
</linearGradient>
<circle style="fill:url(#SVGID_00000003085012756340960500000011866663005744019883_);" cx="143.62" cy="500.45" r="11.71"/>
<linearGradient id="SVGID_00000117670564973060458050000005179940926530936461_" gradientUnits="userSpaceOnUse" x1="446.5967" y1="500.4503" x2="470.0157" y2="500.4503">
	<stop  offset="0" style="stop-color:#F8A34A"/>
	<stop  offset="1" style="stop-color:#DE7200"/>
</linearGradient>
<path style="fill:url(#SVGID_00000117670564973060458050000005179940926530936461_);" d="M470.02,500.45
	c0,6.47-5.24,11.71-11.71,11.71c-6.47,0-11.71-5.24-11.71-11.71c0-6.47,5.24-11.71,11.71-11.71
	C464.77,488.74,470.02,493.98,470.02,500.45z"/>
<linearGradient id="SVGID_00000106862026677765756870000002777238502830700203_" gradientUnits="userSpaceOnUse" x1="773.3591" y1="500.4503" x2="796.778" y2="500.4503">
	<stop  offset="0" style="stop-color:#9BC750"/>
	<stop  offset="1" style="stop-color:#74B023"/>
</linearGradient>
<circle style="fill:url(#SVGID_00000106862026677765756870000002777238502830700203_);" cx="785.07" cy="500.45" r="11.71"/>
<linearGradient id="SVGID_00000125601940125252346740000001355081037461117366_" gradientUnits="userSpaceOnUse" x1="1088.3422" y1="500.4503" x2="1111.761" y2="500.4503">
	<stop  offset="0" style="stop-color:#FA4E6F"/>
	<stop  offset="1" style="stop-color:#FA0042"/>
</linearGradient>
<circle style="fill:url(#SVGID_00000125601940125252346740000001355081037461117366_);" cx="1100.05" cy="500.45" r="11.71"/>
<g>
	<path class="st26" d="M110.03,165.49c3.82,0,7.26,1.72,9.74,4.5c2.43,2.72,3.93,6.45,3.93,10.55s-1.5,7.83-3.93,10.55
		c-2.48,2.78-5.93,4.5-9.74,4.5c-3.82,0-7.26-1.72-9.74-4.5c-2.43-2.72-3.93-6.45-3.93-10.55s1.5-7.83,3.93-10.55
		C102.77,167.21,106.21,165.49,110.03,165.49L110.03,165.49z M116.56,172.87c-1.68-1.88-3.99-3.04-6.53-3.04
		c-2.54,0-4.85,1.16-6.53,3.04c-1.74,1.94-2.81,4.65-2.81,7.67c0,3.01,1.07,5.72,2.81,7.67c1.68,1.88,3.99,3.04,6.53,3.04
		c2.54,0,4.85-1.16,6.53-3.04c1.74-1.94,2.81-4.65,2.81-7.67S118.29,174.82,116.56,172.87z"/>
	<path class="st26" d="M134.92,232.04H85.14h-2.25l0.09-2.25c0.75-17.79,7.39-29.54,15.76-34.98c3.6-2.34,7.52-3.53,11.46-3.55
		c3.95-0.02,7.87,1.14,11.46,3.48c8.2,5.36,14.67,16.99,15.43,35.05l0.09,2.25H134.92L134.92,232.04z M87.43,227.71h45.21
		c-1.09-15.18-6.55-24.89-13.35-29.34c-2.87-1.88-5.98-2.8-9.07-2.79c-3.1,0.01-6.23,0.97-9.12,2.85
		C94.14,202.96,88.53,212.75,87.43,227.71z"/>
	<path class="st26" d="M79.9,154.39h116.38c3.08,0,5.89,1.26,7.91,3.29c2.03,2.03,3.29,4.83,3.29,7.91v66.34
		c0,3.08-1.26,5.88-3.29,7.91c-2.03,2.03-4.83,3.29-7.91,3.29H79.9c-3.08,0-5.89-1.26-7.91-3.29c-2.03-2.03-3.29-4.83-3.29-7.91
		V165.6c0-3.08,1.26-5.89,3.29-7.91C74.01,155.65,76.81,154.39,79.9,154.39L79.9,154.39z M196.27,158.73H79.9
		c-1.89,0-3.6,0.77-4.85,2.02c-1.25,1.25-2.02,2.96-2.02,4.85v66.34c0,1.89,0.77,3.6,2.02,4.85c1.25,1.25,2.96,2.02,4.85,2.02
		h116.38c1.89,0,3.6-0.77,4.85-2.02c1.25-1.25,2.02-2.96,2.02-4.85V165.6c0-1.89-0.77-3.6-2.02-4.85
		C199.88,159.5,198.16,158.73,196.27,158.73z"/>
	<path class="st26" d="M148.16,176.61c-1.2,0-2.17,0.97-2.17,2.17c0,1.2,0.97,2.17,2.17,2.17h42.87c1.2,0,2.17-0.97,2.17-2.17
		c0-1.2-0.97-2.17-2.17-2.17H148.16z"/>
	<path class="st26" d="M148.16,189.94c-1.2,0-2.17,0.97-2.17,2.17c0,1.2,0.97,2.17,2.17,2.17h42.87c1.2,0,2.17-0.97,2.17-2.17
		c0-1.2-0.97-2.17-2.17-2.17H148.16z"/>
	<path class="st26" d="M148.16,203.26c-1.2,0-2.17,0.97-2.17,2.17c0,1.2,0.97,2.17,2.17,2.17h42.87c1.2,0,2.17-0.97,2.17-2.17
		c0-1.2-0.97-2.17-2.17-2.17H148.16z"/>
	<path class="st26" d="M148.16,216.59c-1.2,0-2.17,0.97-2.17,2.17c0,1.2,0.97,2.17,2.17,2.17h42.87c1.2,0,2.17-0.97,2.17-2.17
		c0-1.2-0.97-2.17-2.17-2.17H148.16z"/>
</g>
<g>
	<path class="st27" d="M489.83,238.35c0,2.64,0,5.15,0,7.65c0,1.7-0.53,2.24-2.19,2.24c-21.64,0-43.27,0-64.91,0
		c-1.61,0-2.15-0.55-2.15-2.17c0-28.23,0-56.46,0-84.69c0-1.62,0.54-2.17,2.15-2.17c2.54-0.01,5.07,0,7.68,0
		c0.02-0.36,0.06-0.66,0.06-0.95c0-2.2,0-4.4,0-6.59c0-1.87,0.48-2.34,2.39-2.34c0.03,0,0.07,0,0.1,0c17.04,0,34.07,0.01,51.11-0.02
		c1.04,0,1.81,0.3,2.55,1.04c4.03,4.08,8.09,8.13,12.16,12.17c0.66,0.65,0.96,1.34,0.96,2.27c-0.02,23.77-0.01,47.53-0.02,71.3
		c0,1.76-0.51,2.28-2.26,2.28C494.97,238.35,492.47,238.35,489.83,238.35z M433.84,152.65c0,27.51,0,54.93,0,82.33
		c20.89,0,41.72,0,62.51,0c0-23.1,0-46.12,0-69.18c-3.76,0-7.43,0.01-11.1,0c-1.41,0-2-0.59-2-2.01c-0.01-2.95,0-5.91,0-8.86
		c0-0.74,0-1.49,0-2.27C466.72,152.65,450.31,152.65,433.84,152.65z M486.46,244.9c0-2.22,0-4.36,0-6.55c-0.48,0-0.89,0-1.3,0
		c-17.34,0-34.69,0-52.03,0c-2.3,0-2.66-0.37-2.66-2.7c0-23.94,0-47.87,0-71.81c0-0.43,0-0.86,0-1.28c-2.27,0-4.38,0-6.54,0
		c0,27.47,0,54.89,0,82.35C444.79,244.9,465.59,244.9,486.46,244.9z M493.56,162.45c-2.29-2.3-4.68-4.71-6.97-7.01
		c0,2.18,0,4.57,0,7.01C489.02,162.45,491.41,162.45,493.56,162.45z"/>
	<path class="st27" d="M475.02,195.48c9.88-0.02,18.06,8.11,18.1,17.99c0.04,10.05-8.05,18.26-18.01,18.28
		c-10.1,0.02-18.23-8.05-18.26-18.14C456.83,203.63,464.97,195.5,475.02,195.48z M475.01,198.78c-8.23,0.02-14.85,6.65-14.85,14.88
		c0,8.17,6.7,14.82,14.93,14.8c8.12-0.02,14.79-6.75,14.75-14.88C489.79,205.4,483.14,198.76,475.01,198.78z"/>
	<path class="st27" d="M468.46,172.39c-5.26,0-10.51,0-15.77,0c-0.31,0-0.62,0.02-0.93-0.02c-0.9-0.11-1.54-0.82-1.49-1.67
		c0.05-0.91,0.58-1.44,1.47-1.59c0.27-0.04,0.55-0.02,0.82-0.02c10.55,0,21.09,0,31.64,0c0.31,0,0.62-0.02,0.93,0.03
		c0.84,0.13,1.44,0.84,1.39,1.66c-0.05,0.86-0.54,1.4-1.37,1.57c-0.33,0.07-0.68,0.04-1.03,0.04
		C478.9,172.39,473.68,172.39,468.46,172.39z"/>
	<path class="st27" d="M457.68,192.18c-4.98,0-9.96,0-14.94,0c-0.31,0-0.63,0.03-0.93-0.03c-0.89-0.17-1.43-0.71-1.43-1.62
		c0-0.91,0.53-1.46,1.42-1.62c0.3-0.06,0.62-0.03,0.93-0.03c9.96,0,19.92,0,29.88,0c0.31,0,0.63-0.03,0.93,0.02
		c0.89,0.16,1.43,0.71,1.43,1.62c0,0.91-0.54,1.46-1.42,1.62c-0.3,0.06-0.62,0.03-0.93,0.03
		C467.64,192.18,462.66,192.18,457.68,192.18z"/>
	<path class="st27" d="M477.57,178.99c3.4,0,6.8,0,10.2,0c1.3,0,2.05,0.62,2.05,1.65c0,1.03-0.76,1.65-2.06,1.65
		c-6.87,0-13.74,0-20.61,0c-1.3,0-2.05-0.62-2.05-1.65c0-1.03,0.75-1.64,2.05-1.64C470.63,178.99,474.1,178.99,477.57,178.99z"/>
	<path class="st27" d="M451.2,178.99c2.85,0,5.7,0,8.55,0c1.29,0,2.05,0.63,2.04,1.66c-0.01,1.02-0.77,1.63-2.07,1.63
		c-5.77,0-11.54,0.01-17.31,0c-1.29,0-2.05-0.63-2.04-1.66c0.01-1.03,0.76-1.63,2.07-1.63C445.36,178.99,448.28,178.99,451.2,178.99
		z"/>
	<path class="st27" d="M465.06,162.5c-2.61,0-5.22,0.01-7.83,0c-1.28,0-2.04-0.65-2.02-1.68c0.02-1,0.75-1.61,1.98-1.61
		c5.25-0.01,10.51-0.01,15.76,0c1.28,0,2.04,0.65,2.02,1.68c-0.02,0.99-0.76,1.61-1.99,1.61
		C470.35,162.51,467.71,162.5,465.06,162.5z"/>
	<path class="st27" d="M449.54,198.78c2.3,0,4.6-0.01,6.9,0c1.3,0,2.05,0.62,2.05,1.65c0,1.03-0.76,1.65-2.06,1.65
		c-4.67,0.01-9.34,0.01-14.01,0c-1.3,0-2.05-0.62-2.05-1.65c0-1.03,0.75-1.64,2.05-1.64C444.8,198.77,447.17,198.78,449.54,198.78z"
		/>
	<path class="st27" d="M447.89,218.56c1.79,0,3.57-0.01,5.36,0c1.21,0.01,1.95,0.65,1.95,1.65c0,1-0.74,1.64-1.95,1.64
		c-3.64,0.01-7.28,0.01-10.92,0c-1.21,0-1.95-0.65-1.95-1.65c0-1,0.73-1.63,1.95-1.64C444.18,218.56,446.03,218.56,447.89,218.56z"
		/>
	<path class="st27" d="M446.87,211.97c-1.55,0-3.09,0.01-4.64,0c-1.13-0.01-1.85-0.66-1.86-1.63c-0.01-0.97,0.71-1.65,1.83-1.65
		c3.16-0.02,6.32-0.02,9.48,0c1.14,0.01,1.85,0.66,1.86,1.63c0.01,0.97-0.71,1.64-1.84,1.66
		C450.1,211.98,448.48,211.97,446.87,211.97z"/>
	<path class="st27" d="M484.06,192.18c-1.3,0-2.61,0.02-3.91,0c-1.13-0.02-1.85-0.67-1.85-1.64c0-0.97,0.71-1.64,1.85-1.64
		c2.61-0.02,5.22-0.02,7.83,0c1.13,0.01,1.85,0.67,1.85,1.64c0,0.97-0.72,1.63-1.85,1.65C486.67,192.2,485.37,192.18,484.06,192.18z
		"/>
	<path class="st27" d="M470.32,217.63c1.25-1.26,2.43-2.45,3.62-3.64c2.62-2.62,5.23-5.24,7.86-7.86c0.92-0.92,1.88-1,2.61-0.25
		c0.7,0.72,0.63,1.67-0.23,2.54c-4.24,4.25-8.48,8.5-12.73,12.73c-1.06,1.05-2.08,0.95-2.91-0.26c-1.03-1.5-2.03-3.01-3.02-4.53
		c-0.63-0.97-0.49-1.89,0.31-2.45c0.84-0.58,1.76-0.34,2.45,0.67C468.94,215.56,469.6,216.56,470.32,217.63z"/>
</g>
<g>
	<path class="st6" d="M357.48,349.46v-21.09h13.51v3.2h-9.69v5.73h8.76v3.2h-8.76v8.96H357.48z"/>
	<path class="st6" d="M378.28,328.37v21.09h-3.82v-21.09H378.28z"/>
	<path class="st6" d="M382.43,349.46v-21.09h3.82v17.89h9.29v3.2H382.43z"/>
	<path class="st6" d="M398.85,349.46v-21.09h3.82v17.89h9.29v3.2H398.85z"/>
	<path class="st6" d="M440.52,335.49h-3.85c-0.11-0.63-0.31-1.19-0.61-1.68c-0.29-0.49-0.66-0.91-1.1-1.25
		c-0.44-0.34-0.94-0.6-1.5-0.78c-0.56-0.17-1.16-0.26-1.81-0.26c-1.15,0-2.16,0.29-3.05,0.86c-0.89,0.57-1.58,1.41-2.08,2.51
		s-0.75,2.45-0.75,4.03c0,1.61,0.25,2.97,0.76,4.07c0.5,1.1,1.2,1.93,2.08,2.49c0.88,0.56,1.89,0.84,3.03,0.84
		c0.63,0,1.22-0.08,1.78-0.25c0.55-0.17,1.05-0.42,1.49-0.75c0.44-0.33,0.82-0.73,1.12-1.21c0.31-0.48,0.52-1.03,0.63-1.65
		l3.85,0.02c-0.14,1-0.46,1.94-0.93,2.82c-0.48,0.88-1.1,1.65-1.87,2.32s-1.67,1.19-2.7,1.57s-2.17,0.56-3.43,0.56
		c-1.85,0-3.51-0.43-4.96-1.29c-1.46-0.86-2.6-2.1-3.44-3.72c-0.84-1.62-1.26-3.56-1.26-5.83c0-2.27,0.42-4.22,1.27-5.83
		c0.84-1.62,1.99-2.85,3.45-3.71c1.46-0.86,3.1-1.29,4.94-1.29c1.17,0,2.27,0.17,3.27,0.49s1.91,0.81,2.7,1.45
		c0.79,0.64,1.44,1.41,1.95,2.33C440.02,333.27,440.36,334.31,440.52,335.49z"/>
	<path class="st6" d="M462.87,338.92c0,2.27-0.42,4.22-1.27,5.83c-0.85,1.62-2,2.85-3.46,3.71c-1.46,0.86-3.11,1.29-4.96,1.29
		s-3.5-0.43-4.96-1.29c-1.46-0.86-2.61-2.1-3.46-3.72c-0.85-1.62-1.27-3.56-1.27-5.82c0-2.27,0.42-4.22,1.27-5.83
		c0.85-1.62,2-2.85,3.46-3.71c1.46-0.86,3.11-1.29,4.96-1.29s3.5,0.43,4.96,1.29c1.46,0.86,2.61,2.1,3.46,3.71
		C462.45,334.7,462.87,336.64,462.87,338.92z M459.03,338.92c0-1.6-0.25-2.95-0.75-4.05c-0.5-1.1-1.19-1.94-2.06-2.5
		s-1.89-0.85-3.04-0.85s-2.16,0.28-3.04,0.85s-1.57,1.4-2.06,2.5c-0.5,1.1-0.75,2.45-0.75,4.05s0.25,2.95,0.75,4.05
		c0.5,1.1,1.19,1.94,2.06,2.5s1.89,0.85,3.04,0.85s2.16-0.28,3.04-0.85s1.57-1.4,2.06-2.5
		C458.78,341.87,459.03,340.52,459.03,338.92z"/>
	<path class="st6" d="M483.83,328.37v21.09h-3.4l-9.94-14.37h-0.18v14.37h-3.82v-21.09h3.42l9.93,14.38h0.19v-14.38H483.83z"/>
	<path class="st6" d="M487.05,331.57v-3.2h16.83v3.2h-6.52v17.89h-3.79v-17.89H487.05z"/>
	<path class="st6" d="M507.27,349.46h-4.08l7.43-21.09h4.72l7.44,21.09h-4.08l-5.63-16.77h-0.16L507.27,349.46z M507.4,341.19h11.12
		v3.07H507.4V341.19z"/>
	<path class="st6" d="M542.61,335.49h-3.85c-0.11-0.63-0.31-1.19-0.61-1.68c-0.29-0.49-0.66-0.91-1.1-1.25
		c-0.44-0.34-0.94-0.6-1.5-0.78c-0.56-0.17-1.16-0.26-1.81-0.26c-1.15,0-2.16,0.29-3.05,0.86c-0.89,0.57-1.58,1.41-2.08,2.51
		s-0.75,2.45-0.75,4.03c0,1.61,0.25,2.97,0.76,4.07c0.5,1.1,1.2,1.93,2.08,2.49c0.88,0.56,1.89,0.84,3.03,0.84
		c0.63,0,1.22-0.08,1.78-0.25c0.55-0.17,1.05-0.42,1.49-0.75c0.44-0.33,0.82-0.73,1.12-1.21c0.31-0.48,0.52-1.03,0.63-1.65
		l3.85,0.02c-0.14,1-0.46,1.94-0.93,2.82c-0.48,0.88-1.1,1.65-1.87,2.32s-1.67,1.19-2.7,1.57s-2.17,0.56-3.43,0.56
		c-1.85,0-3.51-0.43-4.96-1.29c-1.46-0.86-2.6-2.1-3.44-3.72c-0.84-1.62-1.26-3.56-1.26-5.83c0-2.27,0.42-4.22,1.27-5.83
		c0.84-1.62,1.99-2.85,3.45-3.71c1.46-0.86,3.1-1.29,4.94-1.29c1.17,0,2.27,0.17,3.27,0.49s1.91,0.81,2.7,1.45
		c0.79,0.64,1.44,1.41,1.95,2.33C542.12,333.27,542.45,334.31,542.61,335.49z"/>
	<path class="st6" d="M545.2,331.57v-3.2h16.83v3.2h-6.52v17.89h-3.79v-17.89H545.2z"/>
	<path class="st6" d="M363.42,363.17v21.09h-3.82v-21.09H363.42z"/>
	<path class="st6" d="M384.9,363.17v21.09h-3.4l-9.94-14.37h-0.18v14.37h-3.82v-21.09h3.42l9.93,14.38h0.19v-14.38H384.9z"/>
	<path class="st6" d="M389.05,384.26v-21.09h13.51v3.2h-9.69v5.73h8.76v3.2h-8.76v8.96H389.05z"/>
	<path class="st6" d="M424.88,373.72c0,2.27-0.42,4.22-1.27,5.83c-0.85,1.62-2,2.85-3.46,3.71c-1.46,0.86-3.11,1.29-4.96,1.29
		s-3.5-0.43-4.96-1.29c-1.46-0.86-2.61-2.1-3.46-3.72c-0.85-1.62-1.27-3.56-1.27-5.82c0-2.27,0.42-4.22,1.27-5.83
		c0.85-1.62,2-2.85,3.46-3.71c1.46-0.86,3.11-1.29,4.96-1.29s3.5,0.43,4.96,1.29c1.46,0.86,2.61,2.1,3.46,3.71
		C424.45,369.5,424.88,371.44,424.88,373.72z M421.04,373.72c0-1.6-0.25-2.95-0.75-4.05c-0.5-1.1-1.19-1.94-2.06-2.5
		s-1.89-0.85-3.04-0.85s-2.16,0.28-3.04,0.85s-1.57,1.4-2.06,2.5c-0.5,1.1-0.75,2.45-0.75,4.05s0.25,2.95,0.75,4.05
		c0.5,1.1,1.19,1.94,2.06,2.5s1.89,0.85,3.04,0.85s2.16-0.28,3.04-0.85s1.57-1.4,2.06-2.5
		C420.79,376.67,421.04,375.31,421.04,373.72z"/>
	<path class="st6" d="M428.5,384.26v-21.09h7.91c1.62,0,2.98,0.28,4.08,0.84c1.1,0.56,1.94,1.35,2.5,2.36s0.85,2.19,0.85,3.54
		c0,1.35-0.29,2.52-0.86,3.52s-1.42,1.76-2.53,2.3c-1.11,0.54-2.48,0.81-4.1,0.81h-5.63v-3.17h5.12c0.95,0,1.72-0.13,2.33-0.4
		c0.6-0.26,1.05-0.65,1.34-1.16c0.29-0.51,0.44-1.14,0.44-1.89c0-0.75-0.15-1.39-0.44-1.92c-0.3-0.53-0.75-0.94-1.35-1.22
		c-0.6-0.28-1.38-0.42-2.34-0.42h-3.5v17.9H428.5z M439.4,374.7l5.22,9.56h-4.26l-5.13-9.56H439.4z"/>
	<path class="st6" d="M447.37,363.17h4.68l6.26,15.28h0.25l6.26-15.28h4.68v21.09h-3.67v-14.49h-0.2l-5.83,14.43h-2.74l-5.83-14.46
		h-0.2v14.52h-3.67V363.17z"/>
	<path class="st6" d="M476.36,384.26h-4.08l7.43-21.09h4.72l7.44,21.09h-4.08l-5.63-16.77h-0.16L476.36,384.26z M476.49,375.99
		h11.12v3.07h-11.12V375.99z"/>
	<path class="st6" d="M491.16,366.37v-3.2h16.83v3.2h-6.52v17.89h-3.79v-17.89H491.16z"/>
	<path class="st6" d="M515.04,363.17v21.09h-3.82v-21.09H515.04z"/>
	<path class="st6" d="M538.04,373.72c0,2.27-0.42,4.22-1.27,5.83c-0.85,1.62-2,2.85-3.46,3.71c-1.46,0.86-3.11,1.29-4.96,1.29
		s-3.5-0.43-4.96-1.29c-1.46-0.86-2.61-2.1-3.46-3.72c-0.85-1.62-1.27-3.56-1.27-5.82c0-2.27,0.42-4.22,1.27-5.83
		c0.85-1.62,2-2.85,3.46-3.71c1.46-0.86,3.11-1.29,4.96-1.29s3.5,0.43,4.96,1.29c1.46,0.86,2.61,2.1,3.46,3.71
		C537.61,369.5,538.04,371.44,538.04,373.72z M534.19,373.72c0-1.6-0.25-2.95-0.75-4.05c-0.5-1.1-1.19-1.94-2.06-2.5
		s-1.89-0.85-3.04-0.85s-2.16,0.28-3.04,0.85s-1.57,1.4-2.06,2.5c-0.5,1.1-0.75,2.45-0.75,4.05s0.25,2.95,0.75,4.05
		c0.5,1.1,1.19,1.94,2.06,2.5s1.89,0.85,3.04,0.85s2.16-0.28,3.04-0.85s1.57-1.4,2.06-2.5
		C533.95,376.67,534.19,375.31,534.19,373.72z"/>
	<path class="st6" d="M558.99,363.17v21.09h-3.4l-9.94-14.37h-0.18v14.37h-3.82v-21.09h3.42l9.93,14.38h0.19v-14.38H558.99z"/>
</g>
<g>
	<path class="st6" d="M746.02,349.46v-21.09h13.51v3.2h-9.69v5.73h8.76v3.2h-8.76v8.96H746.02z"/>
	<path class="st6" d="M763.07,349.46h-4.08l7.43-21.09h4.72l7.44,21.09h-4.08l-5.63-16.77h-0.16L763.07,349.46z M763.21,341.19
		h11.12v3.07h-11.12V341.19z"/>
	<path class="st6" d="M798.42,335.49h-3.85c-0.11-0.63-0.31-1.19-0.61-1.68c-0.29-0.49-0.66-0.91-1.1-1.25
		c-0.44-0.34-0.94-0.6-1.5-0.78c-0.56-0.17-1.16-0.26-1.81-0.26c-1.15,0-2.16,0.29-3.05,0.86c-0.89,0.57-1.58,1.41-2.08,2.51
		s-0.75,2.45-0.75,4.03c0,1.61,0.25,2.97,0.76,4.07c0.5,1.1,1.2,1.93,2.08,2.49c0.88,0.56,1.89,0.84,3.03,0.84
		c0.63,0,1.22-0.08,1.78-0.25c0.55-0.17,1.05-0.42,1.49-0.75c0.44-0.33,0.82-0.73,1.12-1.21c0.31-0.48,0.52-1.03,0.63-1.65
		l3.85,0.02c-0.14,1-0.46,1.94-0.93,2.82c-0.48,0.88-1.1,1.65-1.87,2.32s-1.67,1.19-2.7,1.57s-2.17,0.56-3.43,0.56
		c-1.85,0-3.51-0.43-4.96-1.29c-1.46-0.86-2.6-2.1-3.44-3.72c-0.84-1.62-1.26-3.56-1.26-5.83c0-2.27,0.42-4.22,1.27-5.83
		c0.84-1.62,1.99-2.85,3.45-3.71c1.46-0.86,3.1-1.29,4.94-1.29c1.17,0,2.27,0.17,3.27,0.49s1.91,0.81,2.7,1.45
		c0.79,0.64,1.44,1.41,1.95,2.33C797.92,333.27,798.26,334.31,798.42,335.49z"/>
	<path class="st6" d="M801.93,349.46v-21.09h13.72v3.2h-9.9v5.73h9.19v3.2h-9.19v5.76h9.98v3.2H801.93z"/>
	<path class="st6" d="M689,363.17l5.49,16.6h0.22l5.48-16.6h4.2l-7.44,21.09h-4.72l-7.43-21.09H689z"/>
	<path class="st6" d="M707.16,384.26v-21.09h13.72v3.2h-9.9v5.73h9.19v3.2h-9.19v5.76h9.98v3.2H707.16z"/>
	<path class="st6" d="M724.78,384.26v-21.09h7.91c1.62,0,2.98,0.28,4.08,0.84c1.1,0.56,1.94,1.35,2.5,2.36s0.85,2.19,0.85,3.54
		c0,1.35-0.29,2.52-0.86,3.52s-1.42,1.76-2.53,2.3c-1.11,0.54-2.48,0.81-4.1,0.81h-5.63v-3.17h5.12c0.95,0,1.72-0.13,2.33-0.4
		c0.6-0.26,1.05-0.65,1.34-1.16c0.29-0.51,0.44-1.14,0.44-1.89c0-0.75-0.15-1.39-0.44-1.92c-0.3-0.53-0.75-0.94-1.35-1.22
		c-0.6-0.28-1.38-0.42-2.34-0.42h-3.5v17.9H724.78z M735.68,374.7l5.22,9.56h-4.26l-5.13-9.56H735.68z"/>
	<path class="st6" d="M743.65,384.26v-21.09h13.51v3.2h-9.69v5.73h8.76v3.2h-8.76v8.96H743.65z"/>
	<path class="st6" d="M764.45,363.17v21.09h-3.82v-21.09H764.45z"/>
	<path class="st6" d="M786.66,370.29h-3.85c-0.11-0.63-0.31-1.19-0.61-1.68c-0.29-0.49-0.66-0.91-1.1-1.25
		c-0.44-0.34-0.94-0.6-1.5-0.78c-0.56-0.17-1.16-0.26-1.81-0.26c-1.15,0-2.16,0.29-3.05,0.86c-0.89,0.57-1.58,1.41-2.08,2.51
		s-0.75,2.45-0.75,4.03c0,1.61,0.25,2.97,0.76,4.07c0.5,1.1,1.2,1.93,2.08,2.49c0.88,0.56,1.89,0.84,3.03,0.84
		c0.63,0,1.22-0.08,1.78-0.25c0.55-0.17,1.05-0.42,1.49-0.75c0.44-0.33,0.82-0.73,1.12-1.21c0.31-0.48,0.52-1.03,0.63-1.65
		l3.85,0.02c-0.14,1-0.46,1.94-0.93,2.82c-0.48,0.88-1.1,1.65-1.87,2.32s-1.67,1.19-2.7,1.57s-2.17,0.56-3.43,0.56
		c-1.85,0-3.51-0.43-4.96-1.29c-1.46-0.86-2.6-2.1-3.44-3.72c-0.84-1.62-1.26-3.56-1.26-5.83c0-2.27,0.42-4.22,1.27-5.83
		c0.84-1.62,1.99-2.85,3.45-3.71c1.46-0.86,3.1-1.29,4.94-1.29c1.17,0,2.27,0.17,3.27,0.49s1.91,0.81,2.7,1.45
		c0.79,0.64,1.44,1.41,1.95,2.33C786.16,368.07,786.5,369.11,786.66,370.29z"/>
	<path class="st6" d="M792.61,384.26h-4.08l7.43-21.09h4.72l7.44,21.09h-4.08l-5.63-16.77h-0.16L792.61,384.26z M792.74,375.99
		h11.12v3.07h-11.12V375.99z"/>
	<path class="st6" d="M807.41,366.37v-3.2h16.83v3.2h-6.52v17.89h-3.79v-17.89H807.41z"/>
	<path class="st6" d="M831.29,363.17v21.09h-3.82v-21.09H831.29z"/>
	<path class="st6" d="M854.28,373.72c0,2.27-0.42,4.22-1.27,5.83c-0.85,1.62-2,2.85-3.46,3.71c-1.46,0.86-3.11,1.29-4.96,1.29
		s-3.5-0.43-4.96-1.29c-1.46-0.86-2.61-2.1-3.46-3.72c-0.85-1.62-1.27-3.56-1.27-5.82c0-2.27,0.42-4.22,1.27-5.83
		c0.85-1.62,2-2.85,3.46-3.71c1.46-0.86,3.11-1.29,4.96-1.29s3.5,0.43,4.96,1.29c1.46,0.86,2.61,2.1,3.46,3.71
		C853.86,369.5,854.28,371.44,854.28,373.72z M850.44,373.72c0-1.6-0.25-2.95-0.75-4.05c-0.5-1.1-1.19-1.94-2.06-2.5
		s-1.89-0.85-3.04-0.85s-2.16,0.28-3.04,0.85s-1.57,1.4-2.06,2.5c-0.5,1.1-0.75,2.45-0.75,4.05s0.25,2.95,0.75,4.05
		c0.5,1.1,1.19,1.94,2.06,2.5s1.89,0.85,3.04,0.85s2.16-0.28,3.04-0.85s1.57-1.4,2.06-2.5
		C850.19,376.67,850.44,375.31,850.44,373.72z"/>
	<path class="st6" d="M875.24,363.17v21.09h-3.4l-9.94-14.37h-0.18v14.37h-3.82v-21.09h3.42l9.93,14.38h0.19v-14.38H875.24z"/>
</g>
<g>
	<path class="st6" d="M1056.51,334.17c-0.1-0.9-0.5-1.6-1.21-2.1c-0.71-0.5-1.63-0.75-2.77-0.75c-0.8,0-1.48,0.12-2.05,0.36
		s-1.01,0.57-1.31,0.98c-0.3,0.41-0.46,0.88-0.46,1.41c0,0.44,0.1,0.82,0.3,1.14c0.2,0.32,0.48,0.6,0.83,0.82s0.74,0.41,1.16,0.56
		c0.43,0.15,0.85,0.28,1.29,0.38l1.98,0.49c0.8,0.19,1.56,0.44,2.3,0.75c0.74,0.32,1.4,0.71,1.99,1.19c0.59,0.48,1.05,1.06,1.4,1.74
		s0.52,1.48,0.52,2.39c0,1.24-0.32,2.32-0.95,3.26s-1.54,1.67-2.73,2.19c-1.19,0.53-2.63,0.79-4.32,0.79
		c-1.64,0-3.06-0.25-4.27-0.76c-1.21-0.51-2.15-1.25-2.82-2.22c-0.68-0.97-1.04-2.16-1.1-3.56h3.76c0.05,0.73,0.28,1.35,0.68,1.83
		c0.4,0.49,0.92,0.85,1.56,1.09s1.36,0.36,2.16,0.36c0.83,0,1.56-0.12,2.19-0.38c0.63-0.25,1.12-0.6,1.48-1.05s0.54-0.98,0.55-1.58
		c-0.01-0.55-0.17-1-0.48-1.36c-0.32-0.36-0.76-0.66-1.32-0.91s-1.23-0.46-1.98-0.65l-2.4-0.62c-1.74-0.45-3.11-1.12-4.11-2.03
		s-1.51-2.12-1.51-3.63c0-1.24,0.34-2.33,1.01-3.26c0.68-0.93,1.6-1.66,2.77-2.18c1.17-0.52,2.49-0.78,3.96-0.78
		c1.5,0,2.81,0.26,3.94,0.78c1.13,0.52,2.02,1.24,2.66,2.15s0.98,1.97,1,3.16H1056.51z"/>
	<path class="st6" d="M1077.17,328.37h3.82v13.78c0,1.51-0.35,2.84-1.07,3.99c-0.71,1.15-1.71,2.04-2.99,2.68
		c-1.28,0.64-2.78,0.96-4.5,0.96c-1.72,0-3.23-0.32-4.51-0.96s-2.28-1.54-2.99-2.68c-0.71-1.15-1.06-2.48-1.06-3.99v-13.78h3.82
		v13.46c0,0.88,0.19,1.66,0.58,2.35c0.39,0.69,0.94,1.22,1.64,1.61c0.71,0.39,1.54,0.58,2.51,0.58c0.97,0,1.81-0.19,2.52-0.58
		c0.71-0.39,1.26-0.92,1.64-1.61c0.38-0.69,0.58-1.47,0.58-2.35V328.37z"/>
	<path class="st6" d="M1085.15,349.46v-21.09h8.07c1.52,0,2.79,0.24,3.81,0.72s1.77,1.13,2.28,1.95c0.5,0.82,0.76,1.76,0.76,2.8
		c0,0.86-0.16,1.59-0.49,2.2s-0.77,1.1-1.33,1.48c-0.56,0.38-1.18,0.65-1.86,0.81v0.21c0.75,0.04,1.47,0.27,2.16,0.68
		c0.69,0.42,1.25,1,1.69,1.76c0.44,0.76,0.66,1.67,0.66,2.74c0,1.09-0.26,2.07-0.79,2.94s-1.33,1.55-2.39,2.05
		c-1.06,0.5-2.4,0.75-4.02,0.75H1085.15z M1088.97,337.34h3.78c0.66,0,1.25-0.12,1.78-0.37c0.53-0.24,0.95-0.59,1.25-1.04
		c0.31-0.45,0.46-0.98,0.46-1.6c0-0.82-0.29-1.49-0.86-2.02s-1.42-0.79-2.55-0.79h-3.86V337.34z M1088.97,346.27h4.11
		c1.39,0,2.39-0.27,3-0.8c0.61-0.53,0.92-1.22,0.92-2.05c0-0.62-0.15-1.19-0.46-1.69c-0.31-0.5-0.75-0.9-1.32-1.19
		c-0.57-0.29-1.25-0.44-2.04-0.44h-4.21V346.27z"/>
	<path class="st6" d="M1104.22,328.37h4.68l6.26,15.28h0.25l6.26-15.28h4.68v21.09h-3.67v-14.49h-0.2l-5.83,14.43h-2.74l-5.83-14.46
		h-0.2v14.52h-3.67V328.37z"/>
	<path class="st6" d="M1134.32,328.37v21.09h-3.82v-21.09H1134.32z"/>
	<path class="st6" d="M1137.54,331.57v-3.2h16.83v3.2h-6.52v17.89h-3.79v-17.89H1137.54z"/>
	<path class="st6" d="M994.99,384.26v-21.09h7.91c1.62,0,2.98,0.28,4.08,0.84c1.1,0.56,1.94,1.35,2.5,2.36s0.85,2.19,0.85,3.54
		c0,1.35-0.29,2.52-0.86,3.52s-1.42,1.76-2.53,2.3c-1.11,0.54-2.48,0.81-4.1,0.81h-5.63v-3.17h5.12c0.95,0,1.72-0.13,2.33-0.4
		c0.6-0.26,1.05-0.65,1.34-1.16c0.29-0.51,0.44-1.14,0.44-1.89c0-0.75-0.15-1.39-0.44-1.92c-0.3-0.53-0.75-0.94-1.35-1.22
		c-0.6-0.28-1.38-0.42-2.34-0.42h-3.5v17.9H994.99z M1005.89,374.7l5.22,9.56h-4.26l-5.13-9.56H1005.89z"/>
	<path class="st6" d="M1013.86,384.26v-21.09h13.72v3.2h-9.9v5.73h9.19v3.2h-9.19v5.76h9.98v3.2H1013.86z"/>
	<path class="st6" d="M1045.61,369.9c-0.17-0.56-0.41-1.06-0.71-1.5c-0.3-0.44-0.66-0.82-1.07-1.14c-0.42-0.32-0.89-0.55-1.43-0.72
		c-0.54-0.16-1.12-0.24-1.75-0.24c-1.13,0-2.14,0.28-3.03,0.85c-0.89,0.57-1.58,1.41-2.09,2.51c-0.5,1.1-0.76,2.44-0.76,4.02
		c0,1.59,0.25,2.94,0.75,4.05c0.5,1.11,1.2,1.94,2.09,2.52c0.89,0.57,1.93,0.86,3.11,0.86c1.07,0,2-0.21,2.79-0.62
		c0.79-0.41,1.39-1,1.82-1.76c0.43-0.76,0.64-1.65,0.64-2.67l0.87,0.13h-5.73v-2.99h8.56v2.53c0,1.81-0.38,3.37-1.15,4.69
		c-0.77,1.32-1.83,2.33-3.17,3.04c-1.35,0.71-2.89,1.07-4.63,1.07c-1.94,0-3.65-0.44-5.11-1.31c-1.47-0.88-2.61-2.12-3.43-3.74
		c-0.82-1.62-1.23-3.54-1.23-5.76c0-1.7,0.24-3.22,0.73-4.56c0.48-1.34,1.16-2.48,2.03-3.41c0.87-0.94,1.9-1.65,3.07-2.14
		c1.17-0.49,2.45-0.74,3.83-0.74c1.17,0,2.26,0.17,3.26,0.51s1.91,0.82,2.69,1.45c0.79,0.62,1.43,1.37,1.94,2.22
		c0.51,0.86,0.84,1.81,1,2.84H1045.61z"/>
	<path class="st6" d="M1057.19,363.17v21.09h-3.82v-21.09H1057.19z"/>
	<path class="st6" d="M1072.81,368.97c-0.1-0.9-0.5-1.6-1.21-2.1c-0.71-0.5-1.63-0.75-2.77-0.75c-0.8,0-1.48,0.12-2.05,0.36
		s-1.01,0.57-1.31,0.98c-0.3,0.41-0.46,0.88-0.46,1.41c0,0.44,0.1,0.82,0.3,1.14c0.2,0.32,0.48,0.6,0.83,0.82s0.74,0.41,1.16,0.56
		c0.43,0.15,0.85,0.28,1.29,0.38l1.98,0.49c0.8,0.19,1.56,0.44,2.3,0.75c0.74,0.32,1.4,0.71,1.99,1.19c0.59,0.48,1.05,1.06,1.4,1.74
		s0.52,1.48,0.52,2.39c0,1.24-0.32,2.32-0.95,3.26s-1.54,1.67-2.73,2.19c-1.19,0.53-2.63,0.79-4.32,0.79
		c-1.64,0-3.06-0.25-4.27-0.76c-1.21-0.51-2.15-1.25-2.82-2.22c-0.68-0.97-1.04-2.16-1.1-3.56h3.76c0.05,0.73,0.28,1.35,0.68,1.83
		c0.4,0.49,0.92,0.85,1.56,1.09s1.36,0.36,2.16,0.36c0.83,0,1.56-0.12,2.19-0.38c0.63-0.25,1.12-0.6,1.48-1.05s0.54-0.98,0.55-1.58
		c-0.01-0.55-0.17-1-0.48-1.36c-0.32-0.36-0.76-0.66-1.32-0.91s-1.23-0.46-1.98-0.65l-2.4-0.62c-1.74-0.45-3.11-1.12-4.11-2.03
		s-1.51-2.12-1.51-3.63c0-1.24,0.34-2.33,1.01-3.26c0.68-0.93,1.6-1.66,2.77-2.18c1.17-0.52,2.49-0.78,3.96-0.78
		c1.5,0,2.81,0.26,3.94,0.78c1.13,0.52,2.02,1.24,2.66,2.15s0.98,1.97,1,3.16H1072.81z"/>
	<path class="st6" d="M1079.24,366.37v-3.2h16.83v3.2h-6.52v17.89h-3.79v-17.89H1079.24z"/>
	<path class="st6" d="M1099.3,384.26v-21.09h7.91c1.62,0,2.98,0.28,4.08,0.84c1.1,0.56,1.94,1.35,2.5,2.36s0.85,2.19,0.85,3.54
		c0,1.35-0.29,2.52-0.86,3.52s-1.42,1.76-2.53,2.3c-1.11,0.54-2.48,0.81-4.1,0.81h-5.63v-3.17h5.12c0.95,0,1.72-0.13,2.33-0.4
		c0.6-0.26,1.05-0.65,1.34-1.16c0.29-0.51,0.44-1.14,0.44-1.89c0-0.75-0.15-1.39-0.44-1.92c-0.3-0.53-0.75-0.94-1.35-1.22
		c-0.6-0.28-1.38-0.42-2.34-0.42h-3.5v17.9H1099.3z M1110.2,374.7l5.22,9.56h-4.26l-5.13-9.56H1110.2z"/>
	<path class="st6" d="M1120.88,384.26h-4.08l7.43-21.09h4.72l7.44,21.09h-4.08l-5.63-16.77h-0.16L1120.88,384.26z M1121.01,375.99
		h11.12v3.07h-11.12V375.99z"/>
	<path class="st6" d="M1135.68,366.37v-3.2h16.83v3.2h-6.52v17.89h-3.79v-17.89H1135.68z"/>
	<path class="st6" d="M1159.56,363.17v21.09h-3.82v-21.09H1159.56z"/>
	<path class="st6" d="M1182.55,373.72c0,2.27-0.42,4.22-1.27,5.83c-0.85,1.62-2,2.85-3.46,3.71c-1.46,0.86-3.11,1.29-4.96,1.29
		s-3.5-0.43-4.96-1.29c-1.46-0.86-2.61-2.1-3.46-3.72c-0.85-1.62-1.27-3.56-1.27-5.82c0-2.27,0.42-4.22,1.27-5.83
		c0.85-1.62,2-2.85,3.46-3.71c1.46-0.86,3.11-1.29,4.96-1.29s3.5,0.43,4.96,1.29c1.46,0.86,2.61,2.1,3.46,3.71
		C1182.13,369.5,1182.55,371.44,1182.55,373.72z M1178.71,373.72c0-1.6-0.25-2.95-0.75-4.05c-0.5-1.1-1.19-1.94-2.06-2.5
		s-1.89-0.85-3.04-0.85s-2.16,0.28-3.04,0.85s-1.57,1.4-2.06,2.5c-0.5,1.1-0.75,2.45-0.75,4.05s0.25,2.95,0.75,4.05
		c0.5,1.1,1.19,1.94,2.06,2.5s1.89,0.85,3.04,0.85s2.16-0.28,3.04-0.85s1.57-1.4,2.06-2.5
		C1178.46,376.67,1178.71,375.31,1178.71,373.72z"/>
	<path class="st6" d="M1203.51,363.17v21.09h-3.4l-9.94-14.37H1190v14.37h-3.82v-21.09h3.42l9.93,14.38h0.19v-14.38H1203.51z"/>
</g>
<g>
	<path class="st28" d="M816.32,224.21c6.05,0,12.09,0,18.23,0c0,1.66,0,3.2,0,4.95c-0.45,0-0.91,0-1.37,0
		c-5.43,0-10.86,0.03-16.28-0.02c-1.05-0.01-1.55,0.18-1.73,1.35c-0.49,3.13-2.15,5.74-4.36,7.89c-2.55,2.49-5.2,4.92-8.03,7.08
		c-8.6,6.55-20.56,6.05-28.82-0.35c-3.35-2.6-6.44-5.44-9.04-8.81c-1.4-1.82-2.4-3.81-2.74-6.08c-0.13-0.87-0.51-1.08-1.35-1.08
		c-5.51,0.04-11.02,0.02-16.52,0.02c-0.47,0-0.94,0-1.48,0c0-1.7,0-3.24,0-4.9c6.1,0,12.15,0,18.34,0c-0.14-0.23-0.18-0.35-0.25-0.4
		c-3.81-2.17-6.12-5.56-7.37-9.62c-0.76-2.47-1.24-5.07-1.46-7.64c-0.2-2.38,0.83-4.41,3.09-5.56c0.81-0.41,0.47-1.02,0.39-1.55
		c-0.75-5.22-0.68-10.41,0.53-15.57c3.42-14.55,16.14-24.81,31.07-25.38c12.32-0.48,21.95,4.34,29.11,14.16
		c4.57,6.27,6.22,13.5,6.01,21.18c-0.05,1.96-0.35,3.92-0.48,5.88c-0.02,0.37,0.09,0.96,0.34,1.09c2.92,1.55,3.49,4.2,3.19,7.1
		c-0.5,4.72-2.03,9.11-5.16,12.76C819.07,221.99,817.66,223.01,816.32,224.21z M815.1,206.59c-0.04-0.22-0.08-0.3-0.06-0.37
		c0.36-1.23,0.77-2.45,1.1-3.69c1.92-7.36,1.86-14.66-1.02-21.76c-4.33-10.69-14.79-17.46-26.32-17.33
		c-10.04,0.11-18.09,4.1-23.8,12.35c-5.02,7.25-5.82,15.42-4.35,23.91c0.39,2.23,1.11,4.4,1.68,6.59c-0.11,0.03-0.19,0.08-0.26,0.07
		c-1.01-0.25-2.03-0.5-3.04-0.75c-1.82-0.46-2.25-0.16-2.06,1.68c0.33,3.19,1.2,6.23,2.95,8.95c1.22,1.91,2.79,3.41,5.15,3.87
		c0.31,0.06,0.7,0.57,0.77,0.93c0.21,1.04,0.28,2.11,0.4,3.15c15.07,0,29.97,0,44.95,0c0.12-1.08,0.18-2.13,0.39-3.14
		c0.07-0.35,0.46-0.84,0.79-0.91c1.79-0.4,3.12-1.43,4.24-2.8c1.63-2,2.65-4.31,3.23-6.8c0.32-1.36,0.47-2.76,0.58-4.15
		c0.07-0.89-0.46-1.21-1.32-0.96C817.78,205.81,816.47,206.19,815.1,206.59z M766.74,229.23c0.7,1.4,1.16,2.69,1.92,3.75
		c2.53,3.53,5.7,6.42,9.28,8.86c4.36,2.98,9.17,4.11,14.32,2.96c7.67-1.71,12.93-6.79,17.26-12.99c0.49-0.7,0.62-1.66,0.94-2.58
		C795.86,229.23,781.5,229.23,766.74,229.23z"/>
	<path class="st28" d="M734.38,149.84c0,4.54,0,8.86,0,13.28c-1.67,0-3.25,0-4.91,0c0-6.01,0-12.01,0-18.11c6.01,0,12.01,0,18.11,0
		c0,1.54,0,3.12,0,4.83C743.27,149.84,738.91,149.84,734.38,149.84z"/>
	<path class="st28" d="M829.78,149.92c0-1.77,0-3.32,0-4.94c6.06,0,12.07,0,18.15,0c0,6.05,0,12.05,0,18.14c-1.58,0-3.16,0-4.87,0
		c0-4.36,0-8.72,0-13.2C838.58,149.92,834.22,149.92,829.78,149.92z"/>
	<path class="st28" d="M729.46,263.44c0-6.06,0-12.06,0-18.13c1.63,0,3.21,0,4.88,0c0,4.39,0,8.71,0,13.21c4.47,0,8.85,0,13.29,0
		c0,1.73,0,3.28,0,4.92C741.62,263.44,735.62,263.44,729.46,263.44z"/>
	<path class="st28" d="M847.9,263.48c-6.08,0-12.06,0-18.11,0c0-1.63,0-3.21,0-4.92c4.4,0,8.75,0,13.24,0c0-4.48,0-8.84,0-13.26
		c1.68,0,3.24,0,4.87,0C847.9,251.36,847.9,257.41,847.9,263.48z"/>
</g>
<g>
	<path class="st29" d="M1173.52,222.01c-0.1,0.31-0.23,0.61-0.31,0.93c-1.28,5.1-5.48,8.47-10.94,8.71c-2.2,0.09-4.4,0.05-6.6,0.02
		c-1.61-0.02-2.51-0.83-2.53-2.13c-0.02-1.36,0.9-2.14,2.62-2.15c1.96-0.02,3.92,0.01,5.88-0.01c4.67-0.05,7.57-2.98,7.57-7.67
		c0.01-11.86,0.01-23.72,0-35.59c0-4.75-2.92-7.69-7.7-7.69c-40.99-0.01-81.98-0.01-122.97,0c-4.75,0-7.65,2.95-7.65,7.74
		c0,11.77,0,23.53,0,35.3c0,5.06,2.83,7.91,7.9,7.91c27.6,0.01,55.2,0,82.79,0c0.57,0,1.15-0.02,1.72,0.05
		c1.18,0.13,1.82,0.89,1.87,2.01c0.05,1.13-0.57,1.91-1.71,2.15c-0.46,0.1-0.95,0.1-1.43,0.1c-27.74,0-55.48,0.01-83.22,0
		c-7.51,0-12.23-4.77-12.23-12.32c0-11.62,0-23.25,0-34.87c0-7.63,4.72-12.37,12.33-12.37c40.66,0,81.31,0,121.97,0
		c6.82,0,10.65,2.91,12.49,9.48c0.02,0.09,0.1,0.16,0.15,0.24C1173.52,195.22,1173.52,208.61,1173.52,222.01z"/>
	<path class="st29" d="M1148.15,243.52c2.36,3.34,4.54,6.41,6.68,9.51c0.37,0.53,0.86,1.3,0.71,1.78c-0.24,0.76-0.83,1.61-1.51,1.99
		c-0.95,0.53-1.84-0.09-2.44-0.94c-1.99-2.8-3.97-5.62-5.95-8.42c-0.3-0.43-0.62-0.84-1.03-1.4c-1.29,2.91-2.51,5.7-3.77,8.47
		c-0.66,1.45-2,2.02-3.1,1.23c-0.53-0.38-0.99-1.08-1.13-1.72c-2.16-9.44-4.25-18.89-6.36-28.34c-0.23-1.04-0.19-2.02,0.79-2.7
		c0.97-0.68,1.88-0.39,2.79,0.19c8.12,5.12,16.24,10.22,24.37,15.32c1,0.63,1.77,1.38,1.44,2.67c-0.33,1.28-1.35,1.62-2.53,1.7
		C1154.21,243.07,1151.31,243.29,1148.15,243.52z M1150.38,239c0.02-0.1,0.05-0.19,0.07-0.29c-4.89-3.07-9.77-6.14-14.97-9.41
		c1.35,6.04,2.62,11.7,3.97,17.74c0.97-2.19,1.78-3.96,2.53-5.76c0.5-1.19,1.29-1.77,2.61-1.83
		C1146.53,239.38,1148.45,239.16,1150.38,239z"/>
	<path class="st29" d="M1125.21,199.64c-0.72,2.5-1.45,5.01-2.16,7.51c-0.5,1.74-0.98,3.49-1.49,5.24
		c-0.45,1.54-1.42,2.41-2.69,2.34c-1.42-0.08-2.22-0.92-2.61-2.26c-1.17-4.03-2.37-8.06-3.57-12.09c-0.08-0.26-0.2-0.5-0.45-1.1
		c-0.76,4.18-1.45,8-2.14,11.82c-0.09,0.47-0.17,0.94-0.27,1.41c-0.32,1.48-1.37,2.28-2.62,2c-1.2-0.27-1.85-1.37-1.6-2.78
		c0.55-3.1,1.11-6.21,1.67-9.31c0.63-3.48,1.28-6.95,1.92-10.43c0.34-1.85,1.13-2.74,2.51-2.84c1.43-0.1,2.39,0.73,2.93,2.59
		c1.26,4.26,2.51,8.52,3.77,12.78c0.12,0.4,0.26,0.79,0.49,1.45c1.22-4.25,2.37-8.24,3.51-12.22c0.22-0.78,0.42-1.57,0.65-2.35
		c0.46-1.53,1.43-2.31,2.75-2.25c1.33,0.06,2.24,0.9,2.55,2.47c0.82,4.17,1.6,8.35,2.39,12.53c0.45,2.35,0.93,4.68,1.34,7.04
		c0.12,0.69,0.26,1.6-0.07,2.07c-0.43,0.6-1.3,1.14-2.03,1.22c-1.15,0.12-1.79-0.78-2-1.86c-0.53-2.67-1.02-5.35-1.53-8.02
		c-0.31-1.64-0.63-3.28-0.95-4.92C1125.41,199.66,1125.31,199.65,1125.21,199.64z"/>
	<path class="st29" d="M1099.93,199.96c1,1.8,2.18,3.25,2.67,4.92c1.35,4.55-1.8,9.22-6.51,9.69c-2.74,0.28-5.53,0.19-8.3,0.15
		c-1.31-0.02-2.13-0.82-2.13-2.21c-0.01-7.07-0.01-14.13,0-21.2c0-1.39,0.85-2.14,2.16-2.17c2.19-0.06,4.4-0.14,6.58,0.04
		c5.36,0.46,8.16,5.76,5.65,10.53C1099.95,199.92,1099.84,200.12,1099.93,199.96z M1090.02,210.43c1.69,0,3.21,0.01,4.74-0.01
		c0.33,0,0.67-0.06,0.99-0.13c1.69-0.35,2.85-1.77,2.86-3.46c0.01-1.68-1.2-3.31-2.84-3.45c-1.88-0.16-3.78-0.04-5.75-0.04
		C1090.02,205.72,1090.02,207.99,1090.02,210.43z M1090.02,198.87c1.53,0,2.97,0.11,4.37-0.03c1.43-0.15,2.28-1.28,2.27-2.68
		c-0.01-1.34-0.81-2.46-2.18-2.61c-1.45-0.15-2.93-0.03-4.47-0.03C1090.02,195.29,1090.02,196.99,1090.02,198.87z"/>
	<path class="st29" d="M1062.39,199.05c0-2.44-0.01-4.88,0-7.31c0.01-1.63,0.75-2.54,2.04-2.59c1.33-0.05,2.24,0.93,2.25,2.56
		c0.03,4.54,0,9.08,0.01,13.62c0.01,2.55,1.36,4.31,3.72,4.91c2.35,0.6,5.22-0.46,6.24-2.44c0.35-0.68,0.46-1.55,0.47-2.34
		c0.04-4.35,0.02-8.7,0.02-13.05c0-0.43-0.03-0.87,0.03-1.29c0.17-1.24,1.09-2.03,2.23-1.98c1.16,0.05,1.99,0.87,2.02,2.17
		c0.05,2.39,0.02,4.78,0.02,7.17c0,2.29-0.1,4.59,0.02,6.88c0.32,6.21-5.55,9.6-10.21,9.37c-4.1-0.21-9.28-3.68-8.89-9.52
		C1062.5,203.17,1062.39,201.11,1062.39,199.05z"/>
	<path class="st29" d="M1049.81,188.79c2.63,0.4,4.88,1.26,6.92,2.69c1.26,0.88,1.56,2.16,0.82,3.21c-0.76,1.07-1.92,1.21-3.28,0.32
		c-1.73-1.14-3.56-1.84-5.67-1.43c-1.25,0.24-2.28,0.8-2.51,2.19c-0.24,1.47,0.76,2,1.9,2.44c1.6,0.61,3.19,1.28,4.78,1.92
		c0.35,0.14,0.72,0.27,1.06,0.43c3.58,1.7,5.36,4.76,4.66,7.99c-0.77,3.55-4.26,6.21-8.3,6.19c-3.27-0.01-6.19-1.07-8.59-3.37
		c-1.2-1.15-1.37-2.44-0.49-3.39c0.87-0.95,2.18-0.86,3.4,0.24c1.96,1.77,4.24,2.56,6.86,2.02c1.56-0.32,2.87-1.54,2.95-2.77
		c0.1-1.61-1.02-2.41-2.28-2.97c-2.05-0.91-4.14-1.74-6.22-2.55c-2.36-0.92-3.74-2.62-4.02-5.11c-0.3-2.73,0.76-4.97,3.1-6.31
		C1046.38,189.68,1048.16,189.35,1049.81,188.79z"/>
	<path class="st29" d="M1154.84,193.64c0,0.44,0,0.95,0,1.47c0,5.4,0,10.79,0,16.19c0,0.33,0.01,0.67,0,1
		c-0.07,1.51-0.97,2.49-2.24,2.44c-1.24-0.05-2.05-0.97-2.05-2.45c-0.02-5.68-0.01-11.36-0.01-17.04c0-0.52,0-1.04,0-1.83
		c-1.14,0-2.21,0.01-3.28,0c-1.62-0.03-2.53-0.77-2.57-2.06c-0.04-1.34,0.91-2.21,2.58-2.23c3.63-0.03,7.26-0.03,10.89,0
		c1.67,0.02,2.59,0.89,2.53,2.26c-0.05,1.31-0.93,2-2.59,2.03c-0.95,0.02-1.91,0.02-2.86,0.05
		C1155.16,193.45,1155.07,193.53,1154.84,193.64z"/>
	<path class="st29" d="M1140.45,201.92c0,3.2,0,6.4,0,9.6c0,0.43,0.02,0.87-0.05,1.29c-0.2,1.19-0.93,1.87-2.14,1.92
		c-1.14,0.04-2.04-0.84-2.08-2.1c-0.06-1.81-0.03-3.63-0.03-5.44c0-5.11-0.01-10.22,0-15.33c0-1.73,0.74-2.67,2.07-2.7
		c1.37-0.03,2.21,0.98,2.22,2.74C1140.46,195.23,1140.45,198.57,1140.45,201.92z"/>
</g>
</svg>
